<svg id="Capa_1" enable-background="new 0 0 497 497" height="512" viewBox="0 0 497 497" width="512" xmlns="http://www.w3.org/2000/svg"><circle cx="248.5" cy="93.301" fill="#b24e2f" r="86.586"/><path d="m179.815 40.572c-11.355 14.762-18.034 33.279-17.887 53.376.34 46.502 38.023 84.831 84.514 85.915 48.767 1.138 88.656-38.054 88.656-86.562 0-19.848-6.684-38.13-17.917-52.733-45.644-4.985-91.695-4.985-137.339 0z" fill="#a34325"/><ellipse cx="51.125" cy="332.399" fill="#c27b5d" rx="51.125" ry="51.125" transform="matrix(.099 -.995 .995 .099 -284.694 350.521)"/><ellipse cx="445.875" cy="332.399" fill="#c8866a" rx="51.125" ry="51.125" transform="matrix(.099 -.995 .995 .099 71.159 743.35)"/><path d="m80.973 162.561c26.181-41.282 75.013-65.76 127.342-65.76h80.37c86.106 0 156.557 70.451 156.557 156.557v80.37c0 86.106-70.451 156.557-156.557 156.557h-80.37c-86.106 0-156.557-70.451-156.557-156.557v-80.37c0-33.529 11.578-62.987 29.215-90.797z" fill="#db9e82"/><path d="m208.315 490.285c-86.106 0-157.557-70.451-157.557-156.557v-80.37c0-33.53 12.578-62.987 30.215-90.797 26.181-41.282 75.013-65.76 127.342-65.76-72.815 114.266-78.279 316.266 0 393.484z" fill="#c8866a"/><ellipse cx="364.848" cy="349.167" fill="#ffb6c1" rx="29.142" ry="21.599"/><ellipse cx="132.152" cy="349.167" fill="#ffb6c1" rx="29.142" ry="21.599"/><g fill="#333942"><path d="m152.063 345.84c-4.142 0-7.5-3.358-7.5-7.5v-15.237c0-4.142 3.358-7.5 7.5-7.5s7.5 3.358 7.5 7.5v15.237c0 4.142-3.358 7.5-7.5 7.5z"/><path d="m344.937 345.84c-4.142 0-7.5-3.358-7.5-7.5v-15.237c0-4.142 3.358-7.5 7.5-7.5s7.5 3.358 7.5 7.5v15.237c0 4.142-3.358 7.5-7.5 7.5z"/><path d="m248.417 355.167c-10.51 0-20.99-3.527-31.593-10.583-3.448-2.294-4.383-6.95-2.088-10.399 2.294-3.448 6.949-4.384 10.399-2.088 16.067 10.692 30.49 10.685 46.765-.022 3.46-2.276 8.111-1.317 10.388 2.144s1.317 8.111-2.144 10.388c-10.701 7.039-21.229 10.56-31.727 10.56z"/></g><path d="m282.715 116.728c5.195 25.413 32.796 40.481 57.354 39.784 30.582-.869 35.832-35.792 33.316-60.278-2.849-27.724-24.891-50.034-53.901-39.669-23.778 8.496-41.999 34.582-36.769 60.163z" fill="#fff18f"/><path d="m214.285 116.728c-5.195 25.413-32.796 40.481-57.354 39.784-30.582-.869-35.832-35.792-33.316-60.278 2.849-27.724 24.891-50.034 53.901-39.669 23.778 8.496 41.999 34.582 36.769 60.163z" fill="#fff18f"/><path d="m311.06 60.425c-19.66 10.842-32.938 33.838-28.345 56.303 3.539 17.312 17.471 29.822 33.761 35.819 11.979-11.941 19.159-27.108 19.159-43.612-.001-18.855-9.376-35.96-24.575-48.51z" fill="#ffde83"/><path d="m161.366 108.936c0 16.504 7.165 31.675 19.144 43.617 16.29-5.997 30.236-18.512 33.775-35.824 4.593-22.465-8.895-45.325-28.354-56.313-15.199 12.55-24.565 29.664-24.565 48.52z" fill="#ffde83"/><ellipse cx="248.5" cy="108.936" fill="#fff18f" rx="59.489" ry="47.6"/></svg>