<svg id="Capa_1" enable-background="new 0 0 502 502" height="512" viewBox="0 0 502 502" width="512" xmlns="http://www.w3.org/2000/svg" xmlns:xlink="http://www.w3.org/1999/xlink"><linearGradient id="lg1"><stop offset=".0212" stop-color="#fdc8bb"/><stop offset="1" stop-color="#fddacc"/></linearGradient><linearGradient id="SVGID_1_" gradientUnits="userSpaceOnUse" x1="66.92" x2="66.92" xlink:href="#lg1" y1="442.374" y2="341.912"/><linearGradient id="SVGID_2_" gradientUnits="userSpaceOnUse" x1="435.08" x2="435.08" xlink:href="#lg1" y1="442.374" y2="341.912"/><linearGradient id="SVGID_3_" gradientUnits="userSpaceOnUse" x1="251" x2="251" y1="502" y2="370.284"><stop offset=".0212" stop-color="#ffb1db"/><stop offset="1" stop-color="#fd86c8"/></linearGradient><linearGradient id="SVGID_4_" gradientUnits="userSpaceOnUse" x1="251" x2="251" y1="268.759" y2="0"><stop offset=".0005580357" stop-color="#f5aa3e"/><stop offset=".9777" stop-color="#fac986"/></linearGradient><linearGradient id="SVGID_5_" gradientUnits="userSpaceOnUse" x1="376.952" x2="472.663" xlink:href="#lg1" y1="249.056" y2="249.056"/><linearGradient id="SVGID_6_" gradientUnits="userSpaceOnUse" x1="29.337" x2="125.048" xlink:href="#lg1" y1="249.056" y2="249.056"/><linearGradient id="SVGID_7_" gradientUnits="userSpaceOnUse" x1="77.191" x2="424.809" xlink:href="#lg1" y1="273.152" y2="273.152"/><g><g><path d="m116.129 370.284-6.948 44.727-28.971 27.363c-26.791-14.1-44.132-26.368-45.641-27.435-18.085-12.922-22.282-38.063-9.36-56.158 12.902-18.075 38.013-22.282 56.098-9.41.292.21 13.828 9.711 34.822 20.913z" fill="url(#SVGID_1_)"/></g><g><path d="m385.871 370.284 6.948 44.727 28.971 27.363c26.791-14.1 44.132-26.368 45.641-27.435 18.085-12.922 22.282-38.063 9.36-56.158-12.902-18.075-38.013-22.282-56.098-9.41-.292.21-13.828 9.711-34.822 20.913z" fill="url(#SVGID_2_)"/></g><path d="m164.095 391.856c-15.272-5.552-29.447-12.033-41.595-18.241-2.194-1.117-4.318-2.234-6.371-3.331l-35.919 72.09c14.112 7.432 30.856 15.371 49.285 22.459-2.444 11.329-3.955 23.753-3.955 37.168h250.92c0-13.415-1.512-25.839-3.955-37.168 18.429-7.088 35.173-15.027 49.285-22.459l-35.919-72.09c-2.053 1.097-4.177 2.214-6.371 3.331-12.147 6.208-26.322 12.689-41.595 18.241z" fill="url(#SVGID_3_)"/><path d="m247.721 417.472-33.77-55.484h-13.156l-47.574 22.33c-2.528 1.187-4.831 2.803-6.806 4.778-11.302 11.302-8.691 30.287 5.256 38.095 22.433 12.559 47.466 21.004 74.073 24.305 13.415 1.664 25.256-8.813 25.256-22.33 0-4.125-1.134-8.171-3.279-11.694z" fill="#fd75be"/><path d="m459.228 268.759c25.41-21.769 25.41-61.073 0-82.841l.223-.447c14.889-29.778-.278-65.82-31.978-75.992l.012-.159c2.56-33.292-25.171-61.024-58.463-58.467l-.162.012-.437-1.339c-10.317-31.611-46.725-46.181-76.003-30.417l-.068-.08c-21.732-25.376-60.982-25.373-82.71.006l-.063.074c-29.821-15.135-66.111-.062-76.436 31.746l-.003.009-.159-.012c-33.292-2.56-61.024 25.171-58.467 58.463l.012.162c-32.213 10.441-46.852 44.091-32.532 74.776l.776 1.664c-25.41 21.768-25.409 61.073 0 82.841z" fill="url(#SVGID_4_)"/><g><path d="m423.829 155.737c-1.143-2.716-3.573-6.296-8.657-7.928-5.293-1.698-8.206-7.366-6.507-12.658 1.698-5.293 7.368-8.207 12.658-6.507 13.02 4.179 18.782 13.877 21.058 19.286 2.156 5.123-.25 11.024-5.372 13.18-5.143 2.163-11.033-.269-13.18-5.373z" fill="#fde7ca"/></g><g><path d="m396.61 117.04c-5.542-.426-9.689-5.264-9.263-10.806.312-4.046-.977-7.753-3.725-10.72-2.767-2.988-6.342-4.568-10.34-4.568-5.558 0-10.064-4.506-10.064-10.064s4.506-10.064 10.064-10.064c9.611 0 18.528 3.914 25.109 11.02 6.56 7.084 9.766 16.297 9.025 25.939-.427 5.551-5.274 9.687-10.806 9.263z" fill="#fde7ca"/></g><circle cx="424.807" cy="249.056" fill="url(#SVGID_5_)" r="47.856"/><circle cx="77.193" cy="249.056" fill="url(#SVGID_6_)" r="47.856"/><path d="m409.735 178.153c-22.946-51.294-86.185-70.81-133.131-39.928-.803.528-1.586 1.057-2.348 1.586-13.996 9.707-32.516 9.707-46.512 0-.762-.529-1.545-1.058-2.348-1.586-46.946-30.882-110.185-11.366-133.131 39.928-9.687 21.655-15.074 45.653-15.074 70.908 0 95.982 77.817 173.799 173.809 173.799s173.809-77.817 173.809-173.799c0-25.256-5.387-49.254-15.074-70.908z" fill="url(#SVGID_7_)"/><g><ellipse cx="133.825" cy="289" fill="#fb99ac" rx="19.914" ry="16.004"/><ellipse cx="368.175" cy="289" fill="#fb99ac" rx="19.914" ry="16.004"/><path d="m167.966 254.8c9.577 0 18.416 2.119 25.544 5.697 6.058 3.041 13.282-1.069 13.82-7.826.151-1.897.167-3.833.039-5.797-1.321-20.193-18.135-36.319-38.365-36.837-22.283-.571-40.526 17.322-40.526 39.476 0 1.124.047 2.238.14 3.338.562 6.679 7.808 10.659 13.798 7.65 7.128-3.581 15.97-5.701 25.55-5.701z" fill="#fff"/><path d="m251 302.582c-8.596 0-17.191-2.873-24.364-8.619-6.652-5.329-7.725-15.042-2.395-21.694 5.329-6.653 15.042-7.724 21.694-2.395 2.982 2.389 7.148 2.389 10.13 0 6.65-5.329 16.363-4.257 21.694 2.395 5.329 6.652 4.257 16.365-2.395 21.694-7.173 5.746-15.768 8.619-24.364 8.619z" fill="#383842"/><path d="m167.966 254.8c7.901 0 15.297 1.443 21.649 3.956 1.215-2.839 1.887-5.96 1.887-9.243 0-12.998-10.537-23.535-23.535-23.535s-23.535 10.537-23.535 23.535c0 3.283.672 6.404 1.887 9.243 6.349-2.514 13.746-3.956 21.647-3.956z" fill="#383842"/><path d="m334.035 254.8c9.577 0 18.416 2.119 25.544 5.697 6.058 3.041 13.282-1.069 13.82-7.826.151-1.897.167-3.833.039-5.797-1.321-20.193-18.135-36.319-38.365-36.837-22.283-.571-40.526 17.322-40.526 39.476 0 1.124.047 2.238.14 3.338.562 6.679 7.808 10.659 13.798 7.65 7.128-3.581 15.97-5.701 25.55-5.701z" fill="#fff"/><path d="m334.035 254.8c7.9 0 15.297 1.443 21.649 3.956 1.214-2.839 1.887-5.96 1.887-9.243 0-12.998-10.537-23.535-23.535-23.535s-23.535 10.537-23.535 23.535c0 3.283.672 6.404 1.887 9.243 6.349-2.514 13.746-3.956 21.647-3.956z" fill="#383842"/></g></g></svg>