<svg id="Capa_1" enable-background="new 0 0 497 497" height="512" viewBox="0 0 497 497" width="512" xmlns="http://www.w3.org/2000/svg"><g><path d="m138.485 223.503c0-80.527 74.405-145.807 166.187-145.807s166.187 65.28 166.187 145.807-74.404 145.807-166.187 145.807v-145.807z" fill="#ff9dd3"/><path d="m33.426 49.197c-10.289-.032-19.353 6.746-22.262 16.616-5.538 18.788-10.463 52.07 7.262 87.631l94.173-74.915c-.001 0-24.649-29.162-79.173-29.332z" fill="#ffc8e5"/><path d="m266.587 49.197c10.289-.032 19.353 6.746 22.262 16.616 5.538 18.788 10.463 52.07-7.262 87.631l-94.173-74.915s24.649-29.162 79.173-29.332z" fill="#ffc8e5"/><path d="m192.984 80.128c-13.24-4.088-27.589-6.529-42.978-6.529s-29.738 2.441-42.978 6.529c-63.976 19.754-107.028 79.708-107.028 146.665v15.279c0 18.236 4.342 36.211 12.666 52.436 19.665 38.331 59.125 62.436 102.207 62.436h70.267c43.081 0 82.541-24.105 102.207-62.436 8.324-16.226 12.666-34.2 12.666-52.436v-15.279c0-66.957-43.053-126.911-107.029-146.665z" fill="#ffb3dd"/><path d="m178.892 196.459c-18.319-8.521-39.452-8.521-57.77 0-29.823 13.872-38.165 43.512-22.707 64.091l.687.915c9.017 12.005 24.358 16.542 38.362 11.861 7.631-2.551 17.284-2.608 25.086 0 14.253 4.765 29.872-.558 39.049-12.776 15.436-20.55 7.157-50.2-22.707-64.091z" fill="#ff9dd3"/><g><g><path d="m72.544 211.602c-4.142 0-7.5-3.358-7.5-7.5v-14.885c0-4.142 3.358-7.5 7.5-7.5s7.5 3.358 7.5 7.5v14.885c0 4.142-3.357 7.5-7.5 7.5z" fill="#423e4f"/></g><g><path d="m227.468 211.602c-4.143 0-7.5-3.358-7.5-7.5v-14.885c0-4.142 3.357-7.5 7.5-7.5s7.5 3.358 7.5 7.5v14.885c0 4.142-3.358 7.5-7.5 7.5z" fill="#423e4f"/></g></g><g fill="#423e4f"><ellipse cx="128.732" cy="232.603" rx="15.316" ry="9.888" transform="matrix(.384 -.923 .923 .384 -135.482 262.05)"/><ellipse cx="171.281" cy="232.603" rx="9.888" ry="15.316" transform="matrix(.923 -.384 .384 .923 -76.242 83.695)"/></g><path d="m470.575 204.515c8.134-.025 15.299 5.333 17.599 13.135 4.378 14.853 8.272 41.163-5.741 69.276l-74.448-59.224c.001.001 19.487-23.053 62.59-23.187z" fill="#ffc8e5"/><path d="m412.389 228.967c-10.467-3.232-21.81-5.161-33.976-5.161s-23.509 1.929-33.976 5.161c-50.576 15.616-84.611 63.013-84.611 115.945v12.079c0 14.417 3.432 28.626 10.013 41.453 15.546 30.302 46.741 49.359 80.799 49.359h55.549c34.058 0 65.252-19.056 80.799-49.359 6.582-12.827 10.014-27.037 10.014-41.454v-12.079c0-52.931-34.035-100.328-84.611-115.944z" fill="#ffdcef"/><path d="m401.249 307.11c-14.482-6.736-31.188-6.736-45.67 0-23.576 10.967-30.171 34.398-17.951 50.667l.543.723c7.128 9.49 19.256 13.078 30.327 9.377 6.033-2.017 13.664-2.062 19.832 0 11.268 3.767 23.615-.441 30.87-10.1 12.203-16.246 5.658-39.685-17.951-50.667z" fill="#ffc8e5"/><g><g><path d="m317.177 320.652c-4.143 0-7.5-3.358-7.5-7.5v-11.767c0-4.142 3.357-7.5 7.5-7.5s7.5 3.358 7.5 7.5v11.767c0 4.143-3.358 7.5-7.5 7.5z" fill="#423e4f"/></g><g><path d="m439.65 320.652c-4.143 0-7.5-3.358-7.5-7.5v-11.767c0-4.142 3.357-7.5 7.5-7.5s7.5 3.358 7.5 7.5v11.767c0 4.143-3.357 7.5-7.5 7.5z" fill="#423e4f"/></g></g><g fill="#423e4f"><ellipse cx="361.595" cy="335.684" rx="12.108" ry="7.817" transform="matrix(.384 -.923 .923 .384 -87.28 540.49)"/><ellipse cx="395.232" cy="335.684" rx="7.817" ry="12.108" transform="matrix(.923 -.384 .384 .923 -98.659 177.685)"/></g><g fill="#ffc8e5"><path d="m371.512 447.803c0-.178.001-.356-.012-.536-1.351-18.44-10.533-35.732-26.555-50.006-3.094-2.756-7.834-2.48-10.589.611-2.756 3.093-2.482 7.833.61 10.589 9.009 8.026 19.999 21.34 21.522 39.342z"/><path d="m400.339 447.803c1.522-18.001 12.512-31.316 21.522-39.342 3.093-2.755 3.366-7.496.61-10.589-2.755-3.092-7.495-3.367-10.589-.611-16.022 14.275-25.205 31.567-26.555 50.007-.013.18-.012.357-.012.536h15.024z"/><path d="m284.313 336.377c0-46.127 25.582-86.434 63.693-108.264l.835-.411s-19.486-23.053-62.589-23.188c-8.134-.025-15.299 5.333-17.599 13.135-4.378 14.853-8.272 41.164 5.741 69.276l.049-.042c-9.381 17.449-14.615 37.309-14.615 58.028v12.079c0 14.417 3.432 28.626 10.013 41.453 14.098 27.479 41.063 45.708 71.363 48.868-34.326-25.498-56.891-67.604-56.891-110.934z"/></g><path d="m42.598 213.622c0-56.821 27.985-106.724 70.167-135.137-1.934.514-3.848 1.06-5.737 1.643-63.976 19.754-107.028 79.708-107.028 146.665v15.279c0 18.236 4.342 36.21 12.666 52.436 15.691 30.584 43.99 52.096 76.67 59.548-32.971-27.341-46.738-73.824-46.738-140.434z" fill="#ff9dd3"/></g></svg>