<svg id="Capa_1" enable-background="new 0 0 502 502" height="512" viewBox="0 0 502 502" width="512" xmlns="http://www.w3.org/2000/svg" xmlns:xlink="http://www.w3.org/1999/xlink"><linearGradient id="SVGID_1_" gradientUnits="userSpaceOnUse" x1="251" x2="251" y1="306.583" y2="488.709"><stop offset=".0212" stop-color="#ff88ca"/><stop offset="1" stop-color="#ff75c0"/></linearGradient><linearGradient id="lg1"><stop offset=".0212" stop-color="#ffb3dd"/><stop offset="1" stop-color="#ff88ca"/></linearGradient><linearGradient id="SVGID_2_" gradientUnits="userSpaceOnUse" x1="74.637" x2="166.313" xlink:href="#lg1" y1="18.987" y2="110.663"/><linearGradient id="SVGID_3_" gradientUnits="userSpaceOnUse" x1="335.687" x2="427.363" y1="110.663" y2="18.987"><stop offset="0" stop-color="#ff88ca"/><stop offset=".9788" stop-color="#ffb3dd"/></linearGradient><linearGradient id="SVGID_4_" gradientUnits="userSpaceOnUse" x1="251" x2="251" xlink:href="#lg1" y1="331.715" y2="8.65"/><linearGradient id="SVGID_5_" gradientUnits="userSpaceOnUse" x1="251" x2="251" y1="387.314" y2="236.486"><stop offset=".0223" stop-color="#8b59c5"/><stop offset="1" stop-color="#a47cd1"/></linearGradient><linearGradient id="lg2"><stop offset=".0212" stop-color="#ffb3dd"/><stop offset="1" stop-color="#ff9dd3"/></linearGradient><linearGradient id="SVGID_6_" gradientUnits="userSpaceOnUse" x1="123.943" x2="218.069" xlink:href="#lg2" y1="343.704" y2="343.704"/><linearGradient id="SVGID_7_" gradientUnits="userSpaceOnUse" x1="283.931" x2="378.057" xlink:href="#lg2" y1="343.704" y2="343.704"/><linearGradient id="SVGID_8_" gradientUnits="userSpaceOnUse" x1="144.34" x2="226.995" xlink:href="#lg2" y1="452.074" y2="452.074"/><linearGradient id="SVGID_9_" gradientUnits="userSpaceOnUse" x1="275.005" x2="357.66" xlink:href="#lg2" y1="452.074" y2="452.074"/><g><path d="m349.974 405.558c0 54.662-44.312 83.151-98.974 83.151s-98.974-28.489-98.974-83.151 44.312-98.974 98.974-98.974 98.974 44.312 98.974 98.974z" fill="url(#SVGID_1_)"/><circle cx="120.475" cy="64.825" fill="url(#SVGID_2_)" r="64.825"/><circle cx="120.475" cy="64.825" fill="#ffc8e5" r="31.686"/><circle cx="381.525" cy="64.825" fill="url(#SVGID_3_)" r="64.825"/><circle cx="381.525" cy="64.825" fill="#ffc8e5" r="31.686"/><path d="m423.458 174.865c0 95.246-77.212 156.85-172.458 156.85s-172.458-61.604-172.458-156.85 77.212-166.215 172.458-166.215 172.458 70.969 172.458 166.215z" fill="url(#SVGID_4_)"/><g><path d="m378.723 119.749c-3.459 0-6.823-1.797-8.674-5.009-1.954-3.391-4.105-6.74-6.393-9.954-3.203-4.499-2.152-10.743 2.347-13.946s10.743-2.152 13.946 2.347c2.658 3.733 5.157 7.625 7.429 11.569 2.757 4.785 1.113 10.9-3.672 13.657-1.573.905-3.29 1.336-4.983 1.336z" fill="#ffc8e5"/></g><g><path d="m349.982 85.743c-2.411 0-4.828-.866-6.747-2.622-6.436-5.888-13.509-11.122-21.022-15.556-4.756-2.807-6.337-8.938-3.53-13.695 2.807-4.756 8.938-6.337 13.695-3.53 8.705 5.137 16.9 11.202 24.357 18.024 4.075 3.728 4.356 10.053.628 14.128-1.973 2.157-4.673 3.251-7.381 3.251z" fill="#ffc8e5"/></g><g><ellipse cx="142.715" cy="206.65" fill="#ff75c0" rx="18.403" ry="14.79"/><ellipse cx="359.285" cy="206.65" fill="#ff75c0" rx="18.403" ry="14.79"/><circle cx="174.265" cy="170.157" fill="#fff" r="36.493"/><circle cx="327.735" cy="170.157" fill="#fff" r="36.493"/><g fill="#383842"><circle cx="174.265" cy="170.157" r="21.75"/><circle cx="327.735" cy="170.157" r="21.75"/></g></g><path d="m272.857 164.297c18.946 8.397 32.164 27.364 32.164 49.411v4.684c0 14.916-6.045 28.419-15.823 38.198-9.779 9.779-23.281 15.823-38.198 15.823-29.832 0-54.021-24.189-54.021-54.021v-4.684c0-22.047 13.218-41.014 32.164-49.411z" fill="#ffc8e5"/><path d="m251 214.025c-6.186 0-12.371-2.339-17.417-7.018-2.025-1.877-2.145-5.041-.267-7.066s5.041-2.145 7.066-.267c6.252 5.796 14.983 5.796 21.235 0 2.025-1.876 5.188-1.758 7.066.267 1.877 2.025 1.758 5.188-.267 7.066-5.045 4.679-11.23 7.018-17.416 7.018z" fill="#383842"/><path d="m272.857 164.297c-2.12 10.116-11.108 17.722-21.857 17.722s-19.737-7.606-21.857-17.722c6.677-2.964 14.072-4.61 21.857-4.61s15.18 1.646 21.857 4.61z" fill="#383842"/><path d="m251 254.907c-62.2-60.788-164.32 41.037-13.846 128.665 8.567 4.989 19.125 4.989 27.692 0 150.474-87.628 48.354-189.454-13.846-128.665z" fill="url(#SVGID_5_)"/><path d="m219.042 343.704c16.211 0 27.915-15.817 22.844-31.215-2.957-8.977-7.998-17.412-15.126-24.54-4.697-4.697-10.01-8.554-15.757-11.497-12.999-6.656-28.443 2.762-28.443 17.366 0 1.872-.269 3.735-.8 5.53l-9.2 31.137c.931 1.071 1.903 2.144 2.896 3.219l37.867 9.307c1.871.46 3.791.693 5.719.693z" fill="#8b59c5"/><path d="m134.343 380.367c-13.867-13.868-13.867-36.35 0-50.218l23.108-23.108c13.867-13.867 36.35-13.867 50.217 0 13.867 13.868 13.867 36.35 0 50.218l-23.108 23.108c-13.866 13.866-36.349 13.867-50.217 0z" fill="url(#SVGID_6_)"/><g><path d="m367.657 380.367c13.867-13.868 13.867-36.35 0-50.218l-23.108-23.108c-13.867-13.867-36.35-13.867-50.217 0-13.867 13.868-13.867 36.35 0 50.218l23.108 23.108c13.866 13.866 36.349 13.867 50.217 0z" fill="url(#SVGID_7_)"/></g><path d="m226.187 458.847-5.68-26.302c-4.832-22.376-28.001-35.622-49.735-28.433-21.734 7.188-32.436 31.637-22.973 52.481l11.123 24.502c7.526 16.578 26.342 24.815 43.628 19.097 17.286-5.718 27.48-23.548 23.637-41.345z" fill="url(#SVGID_8_)"/><path d="m275.813 458.847 5.68-26.302c4.832-22.376 28.001-35.622 49.735-28.433 21.734 7.188 32.436 31.637 22.973 52.481l-11.123 24.502c-7.526 16.578-26.342 24.815-43.628 19.097-17.286-5.718-27.48-23.548-23.637-41.345z" fill="url(#SVGID_9_)"/></g></svg>