<svg height="512pt" viewBox="0 0 512 512" width="512pt" xmlns="http://www.w3.org/2000/svg"><path d="m359.570312 232.765625c0 29.40625 23.839844 53.25 53.25 53.25 26.230469 0 48.015626-18.972656 52.421876-43.9375 27.027343-7.972656 46.757812-32.957031 46.757812-62.5625 0-29.609375-19.734375-54.59375-46.757812-62.566406-4.40625-24.964844-26.191407-43.9375-52.421876-43.9375-29.410156 0-53.25 23.84375-53.25 53.25zm0 0" fill="#5aaa4f"/><path d="m152.429688 232.765625c0 29.40625-23.839844 53.25-53.25 53.25-26.230469 0-48.015626-18.972656-52.421876-43.9375-27.027343-7.972656-46.757812-32.957031-46.757812-62.566406 0-29.605469 19.730469-54.589844 46.757812-62.5625 4.40625-24.964844 26.191407-43.9375 52.421876-43.9375 29.410156 0 53.25 23.839843 53.25 53.25zm0 0" fill="#5aaa4f"/><path d="m91.582031 512c0-90.804688 73.613281-164.417969 164.417969-164.417969s164.417969 73.613281 164.417969 164.417969zm0 0" fill="#c17f8c"/><path d="m276.605469 348.863281c-6.75-.84375-13.625-1.28125-20.605469-1.28125-90.804688 0-164.417969 73.613281-164.417969 164.417969h41.207031c0-83.828125 62.734376-153 143.816407-163.136719zm0 0" fill="#b25f6f"/><path d="m459.105469 208.03125c0 19.320312-15.660157 34.980469-34.976563 34.980469-19.320312 0-34.980468-15.660157-34.980468-34.980469 0-19.316406 15.660156-34.976562 34.980468-34.976562 19.316406 0 34.976563 15.660156 34.976563 34.976562zm0 0" fill="#c6c5ca"/><path d="m122.851562 208.03125c0 19.320312-15.660156 34.980469-34.980468 34.980469-19.316406 0-34.976563-15.660157-34.976563-34.980469 0-19.316406 15.660157-34.976562 34.976563-34.976562 19.320312 0 34.980468 15.660156 34.980468 34.976562zm0 0" fill="#c6c5ca"/><path d="m432.449219 198.214844c0 97.449218-78.996094 176.449218-176.449219 176.449218s-176.449219-79-176.449219-176.449218c0-97.453125 78.996094-176.453125 176.449219-176.453125s176.449219 79 176.449219 176.453125zm0 0" fill="#eaeaea"/><path d="m288.867188 250.160156c0 18.15625-14.714844 32.871094-32.867188 32.871094s-32.867188-14.714844-32.867188-32.871094c0-18.152344 14.714844-32.867187 32.867188-32.867187s32.867188 14.714843 32.867188 32.867187zm0 0" fill="#f46262"/><path d="m243.734375 250.160156c0-14.550781 9.464844-26.886718 22.566406-31.210937-3.238281-1.066407-6.699219-1.65625-10.300781-1.65625-18.152344 0-32.867188 14.714843-32.867188 32.867187 0 18.15625 14.714844 32.871094 32.867188 32.871094 3.601562 0 7.058594-.589844 10.300781-1.65625-13.105469-4.324219-22.566406-16.660156-22.566406-31.214844zm0 0" fill="#d65b5b"/><path d="m432.417969 195.609375c-1.394531-96.25-79.835938-173.847656-176.417969-173.847656-97.449219 0-176.449219 79-176.449219 176.453125 0 97.449218 79 176.449218 176.449219 176.449218 5.207031 0 10.359375-.238281 15.453125-.679687-90.214844-7.832031-161-83.527344-161-175.769531 0-.871094.019531-1.738282.03125-2.605469zm0 0" fill="#d8d7da"/><path d="m461.589844 180.15625c0 21.75-17.632813 39.378906-39.378906 39.378906-21.75 0-39.382813-17.628906-39.382813-39.378906s17.632813-39.378906 39.382813-39.378906c21.746093 0 39.378906 17.628906 39.378906 39.378906zm0 0" fill="#5aaa4f"/><path d="m129.171875 180.15625c0 21.75-17.632813 39.378906-39.382813 39.378906-21.746093 0-39.378906-17.628906-39.378906-39.378906s17.632813-39.378906 39.378906-39.378906c21.75 0 39.382813 17.628906 39.382813 39.378906zm0 0" fill="#5aaa4f"/><path d="m418.769531 0h-325.539062c-8.246094 0-14.933594 6.6875-14.933594 14.9375v123.269531c0 8.25 6.683594 14.9375 14.933594 14.9375h325.535156c8.25 0 14.9375-6.6875 14.9375-14.9375v-123.269531c0-8.25-6.6875-14.9375-14.933594-14.9375zm0 0" fill="#ffcd00"/><path d="m129.804688 138.207031v-123.269531c0-8.25 6.6875-14.9375 14.9375-14.9375h-51.511719c-8.246094 0-14.933594 6.6875-14.933594 14.9375v123.269531c0 8.25 6.683594 14.9375 14.933594 14.9375h51.511719c-8.25 0-14.9375-6.6875-14.9375-14.9375zm0 0" fill="#ff9d00"/><path d="m78.296875 80.867188v57.339843c0 8.25 6.6875 14.9375 14.9375 14.9375h325.535156c8.246094 0 14.933594-6.6875 14.933594-14.9375v-57.339843zm0 0" fill="#c17f8c"/><path d="m129.804688 138.207031v-57.339843h-51.507813v57.339843c0 8.25 6.6875 14.9375 14.9375 14.9375h51.507813c-8.25 0-14.9375-6.6875-14.9375-14.9375zm0 0" fill="#b25f6f"/><path d="m441.722656 127.226562h-371.445312c-5.285156 0-9.5625 4.28125-9.5625 9.5625v33.804688c0 5.28125 4.28125 9.5625 9.5625 9.5625h371.445312c5.285156 0 9.5625-4.285156 9.5625-9.5625v-33.804688c.003906-5.28125-4.277344-9.5625-9.5625-9.5625zm0 0" fill="#ffde55"/><path d="m112.222656 170.59375v-33.804688c0-5.28125 4.28125-9.5625 9.5625-9.5625h-51.507812c-5.285156 0-9.5625 4.285157-9.5625 9.5625v33.804688c0 5.28125 4.28125 9.5625 9.5625 9.5625h51.507812c-5.28125 0-9.5625-4.28125-9.5625-9.5625zm0 0" fill="#ffcd00"/><path d="m336.09375 336.363281c-30.464844 0-80.09375 34.875-80.09375 34.875s-49.628906-34.875-80.09375-34.875c-30.46875 0-30.46875 133.042969 0 133.042969 30.464844 0 80.09375-34.878906 80.09375-34.878906s49.628906 34.878906 80.09375 34.878906c30.46875 0 30.46875-133.042969 0-133.042969zm0 0" fill="#ffcd00"/><path d="m230.773438 402.882812c0 13.066407-10.589844 23.65625-23.65625 23.65625-13.0625 0-23.65625-10.589843-23.65625-23.65625 0-13.066406 10.59375-23.65625 23.65625-23.65625 13.066406 0 23.65625 10.589844 23.65625 23.65625zm0 0" fill="#ff9d00"/><path d="m328.539062 402.882812c0 13.066407-10.59375 23.65625-23.65625 23.65625-13.066406 0-23.65625-10.589843-23.65625-23.65625 0-13.066406 10.589844-23.65625 23.65625-23.65625 13.0625 0 23.65625 10.589844 23.65625 23.65625zm0 0" fill="#ff9d00"/><path d="m256 454.878906c-21.308594 0-38.578125-17.273437-38.578125-38.578125v-26.835937c0-21.304688 17.269531-38.578125 38.578125-38.578125s38.578125 17.273437 38.578125 38.578125v26.835937c0 21.304688-17.269531 38.578125-38.578125 38.578125zm0 0" fill="#ffde55"/><path d="m238.023438 416.300781v-26.835937c0-17.738282 11.972656-32.667969 28.277343-37.175782-3.28125-.90625-6.730469-1.402343-10.300781-1.402343-21.308594 0-38.582031 17.273437-38.582031 38.578125v26.835937c0 21.304688 17.273437 38.578125 38.582031 38.578125 3.566406 0 7.019531-.492187 10.300781-1.402344-16.304687-4.507812-28.277343-19.4375-28.277343-37.175781zm0 0" fill="#ffcd00"/><path d="m321.609375 227.035156c-4.140625 0-7.5-3.355468-7.5-7.5v-11.695312c0-4.144532 3.359375-7.5 7.5-7.5 4.144531 0 7.5 3.355468 7.5 7.5v11.695312c0 4.144532-3.355469 7.5-7.5 7.5zm0 0" fill="#222223"/><path d="m190.386719 227.035156c-4.140625 0-7.5-3.355468-7.5-7.5v-11.695312c0-4.144532 3.359375-7.5 7.5-7.5 4.144531 0 7.5 3.355468 7.5 7.5v11.695312c0 4.144532-3.355469 7.5-7.5 7.5zm0 0" fill="#222223"/><g fill="#f46262"><path d="m327.460938 249.148438h-11.699219c-4.140625 0-7.5-3.355469-7.5-7.5 0-4.140626 3.359375-7.5 7.5-7.5h11.699219c4.144531 0 7.5 3.359374 7.5 7.5 0 4.144531-3.355469 7.5-7.5 7.5zm0 0"/><path d="m196.238281 249.148438h-11.699219c-4.140624 0-7.5-3.355469-7.5-7.5 0-4.140626 3.359376-7.5 7.5-7.5h11.699219c4.140625 0 7.5 3.359374 7.5 7.5 0 4.144531-3.359375 7.5-7.5 7.5zm0 0"/></g></svg>