<svg id="Layer_1" enable-background="new 0 0 512 512" height="512" viewBox="0 0 512 512" width="512" xmlns="http://www.w3.org/2000/svg"><g><g><path d="m451.886 314.466h-278.91v-266.566c55.83-99.808 405.69-58.521 278.91 266.566z" fill="#823931"/><path d="m451.886 314.466c57.64-308.613-232.81-330.112-278.91-266.566 55.83-99.808 405.69-58.521 278.91 266.566z" fill="#6d201b"/><path d="m219.076 146.607v70.462l-41.67 97.396h-110.63c-.23-.481-.46-.971-.69-1.451-94-199.626 32.33-302.927 106.25-265.224 26.82 13.662 46.74 45.891 46.74 98.817z" fill="#aa5d57"/><g><g><path d="m466.896 501.431c-4.6 1.602-10.98 3.623-18.5 5.475-30.78 7.577-80.47 12.171-103.54-27.574v-123.149h93.45s-.4 1.541-.94 4.344c-3.31 17.055-11.91 81.042 31.89 131.997 2.57 2.981 1.36 7.616-2.36 8.907z" fill="#823931"/><path d="m466.896 501.431c-4.6 1.602-10.98 3.623-18.5 5.475-49.51-50.745-22.21-122.598-11.03-146.379-3.31 17.055-11.91 81.042 31.89 131.997 2.57 2.981 1.36 7.616-2.36 8.907z" fill="#6d201b"/></g><g><path d="m51.674 501.431c4.6 1.602 10.98 3.623 18.5 5.475 30.78 7.577 80.47 12.171 103.54-27.574v-123.149h-93.45s.4 1.541.94 4.344c3.31 17.055 11.91 81.042-31.89 131.997-2.57 2.981-1.36 7.616 2.36 8.907z" fill="#aa5d57"/><path d="m51.674 501.431c4.6 1.602 10.98 3.623 18.5 5.475 49.51-50.745 22.21-122.598 11.03-146.379 3.31 17.055 11.91 81.042-31.89 131.997-2.57 2.981-1.36 7.616 2.36 8.907z" fill="#823931"/></g></g><g fill="#fab684"><path d="m110.563 365.837c-9.425 2.157-20.128.472-29.441-5.492-17.2-11.015-23.142-32.453-13.273-47.884 8.215-12.844 24.797-17.477 40.045-12.316z"/><path d="m408.013 365.826c9.436 2.174 20.16.493 29.488-5.481 17.2-11.015 23.142-32.453 13.273-47.884-8.215-12.844-24.797-17.477-40.045-12.316z"/></g><path d="m259.286 512c-4.48 0-8.85-.15-13.11-.44h-.03c-153.57-10.369-160.44-202.939-121.07-257.117 29.69-40.866 94.21-47.902 94.21-99.388 0 51.486 144.52 58.522 174.21 99.388 40.46 55.679 32.08 257.557-134.21 257.557z" fill="#ffe8c8"/><path d="m259.286 512c-4.48 0-8.85-.15-13.11-.44 153.95-10.66 163.38-212.308 120.32-245.107-40.17-30.597-147.21-27.584-147.21-111.398 0 51.486 144.52 58.522 174.21 99.388 40.46 55.679 32.08 257.557-134.21 257.557z" fill="#fdd9b4"/><path d="m172.336 47.79c-32.88-5.064-169.05 87.778-104.49 264.674l-1.76.55c-94-199.626 32.33-302.927 106.25-265.224z" fill="#823931"/></g><g><path d="m243.444 441.267-14.438 15.589c-7.505 8.104-20.159 8.589-28.263 1.084-8.104-7.505-8.589-20.159-1.084-28.263l8.593-9.278z" fill="#ff4656"/><g><g><path d="m259.285 359.459c-12.634 0-22.913 10.279-22.913 22.914 0 4.142 3.358 7.5 7.5 7.5s7.5-3.358 7.5-7.5c0-4.364 3.55-7.914 7.913-7.914s7.913 3.55 7.913 7.914c0 4.142 3.358 7.5 7.5 7.5s7.5-3.358 7.5-7.5c0-12.635-10.278-22.914-22.913-22.914z" fill="#fab684"/></g><g><g><g><path d="m239.741 312.18c0 12.693-7.397 23.924-18.696 30.669-7.06 4.227-15.638 6.7-24.902 6.7-24.07 0-43.586-16.74-43.586-37.37 0-20.641 19.517-37.37 43.586-37.37 9.084 0 17.515 2.383 24.497 6.464 11.535 6.714 19.101 18.057 19.101 30.907z" fill="#fff"/></g><path d="m239.741 312.18c0 12.693-7.397 23.924-18.696 30.669-16.357-.753-29.399-14.255-29.399-30.804 0-16.414 12.827-29.826 28.994-30.77 11.535 6.712 19.101 18.055 19.101 30.905z" fill="#003343"/></g></g><g fill="#fab684"><path d="m329.292 287.943c-25.518 0-46.278 18.275-46.278 40.739 0 4.142 3.357 7.5 7.5 7.5s7.5-3.358 7.5-7.5c0-14.192 14.031-25.739 31.278-25.739s31.278 11.546 31.278 25.739c0 4.142 3.357 7.5 7.5 7.5s7.5-3.358 7.5-7.5c.001-22.464-20.76-40.739-46.278-40.739z"/><path d="m319.809 400.922c-3.61-2.033-8.183-.753-10.215 2.857-10.154 18.041-29.311 29.249-49.994 29.249s-39.84-11.208-49.994-29.249c-2.031-3.61-6.605-4.89-10.215-2.857-3.609 2.031-4.889 6.604-2.857 10.214 12.808 22.755 36.974 36.891 63.066 36.891s50.259-14.136 63.066-36.891c2.032-3.61.753-8.183-2.857-10.214z"/></g></g></g></g></svg>