<?xml version="1.0" encoding="iso-8859-1"?>
<!-- Generator: Adobe Illustrator 19.0.0, SVG Export Plug-In . SVG Version: 6.00 Build 0)  -->
<svg version="1.1" id="Capa_1" xmlns="http://www.w3.org/2000/svg" xmlns:xlink="http://www.w3.org/1999/xlink" x="0px" y="0px"
	 viewBox="0 0 512 512" style="enable-background:new 0 0 512 512;" xml:space="preserve">
<path style="fill:#F5D7B7;" d="M191.414,0c-88.471,0-160.19,71.72-160.19,160.19v244.706C31.224,464.634,79.651,512,139.389,512
	c47.737,0,76.897-24.647,94.141-85.521c29.136-102.856,118.074-127.912,118.074-266.288C351.605,71.72,279.885,0,191.414,0z"/>
<path style="opacity:0.05;enable-background:new    ;" d="M221.474,459.178C27.948,478.021,40.424,171.477,58.306,71.046
	C41.205,96.53,31.224,127.194,31.224,160.19v244.706C31.224,464.634,79.651,512,139.39,512
	C177.424,512,203.656,496.329,221.474,459.178z"/>
<g style="opacity:0.15;">
	<path d="M154.607,399.093c-2.95,0-5.981-0.204-9.099-0.61c-22.334-2.911-40.028-17.465-47.331-38.933
		c-7.433-21.851-2.262-45.212,13.495-60.969c5.145-5.146,7.979-11.987,7.979-19.264c0-15.021-12.221-27.242-27.242-27.242
		c-4.142,0-7.5-3.358-7.5-7.5s3.358-7.5,7.5-7.5c23.293,0,42.242,18.95,42.242,42.242c0,11.283-4.394,21.891-12.372,29.87
		c-11.686,11.686-15.479,29.132-9.901,45.532c5.421,15.934,18.53,26.734,35.068,28.89c32.187,4.19,45.941-21.163,59.237-45.687
		c3.614-6.666,7.027-12.963,10.768-18.569c5.405-8.536,11.153-16.859,16.712-24.909c24.131-34.938,46.907-67.916,46.907-122.932
		c0-53.377-43.426-96.803-96.804-96.803s-96.804,43.426-96.804,96.803c0,4.142-3.358,7.5-7.5,7.5s-7.5-3.358-7.5-7.5
		c0-61.648,50.155-111.803,111.804-111.803S296.07,109.864,296.07,171.512c0,59.692-24.067,94.539-49.547,131.431
		c-5.509,7.977-11.188,16.2-16.447,24.509c-0.034,0.053-0.068,0.105-0.102,0.157c-3.376,5.048-6.644,11.078-10.104,17.46
		c-6.932,12.787-14.789,27.28-25.97,37.932C182.582,393.786,169.66,399.093,154.607,399.093z"/>
	<path d="M207.773,239.764c-0.86,0-1.735-0.149-2.59-0.464c-3.887-1.431-5.878-5.742-4.447-9.629
		c8.165-22.177,16.298-63.523-20.965-91.264c-27.734-20.647-66.622-22.452-82.86-10.268c-3.313,2.486-8.014,1.815-10.5-1.499
		c-2.486-3.313-1.814-8.015,1.499-10.5c23.508-17.636,69.679-12.95,100.82,10.235c15.056,11.209,25.651,26.085,30.639,43.021
		c5.764,19.569,4.231,41.592-4.555,65.457C213.696,237.885,210.826,239.764,207.773,239.764z"/>
</g>
<path style="opacity:0.05;enable-background:new    ;" d="M92.409,237.075c23.293,0,42.242,18.95,42.242,42.242
	c0,11.283-4.394,21.891-12.372,29.87c-11.686,11.686-15.479,29.132-9.901,45.532c5.421,15.935,18.531,26.734,35.069,28.89
	c32.189,4.195,45.942-21.163,59.237-45.688c3.613-6.666,7.027-12.963,10.768-18.569c5.416-8.552,11.167-16.879,16.729-24.933
	c24.113-34.914,46.889-67.892,46.889-122.907c0-53.377-43.426-96.803-96.803-96.803c-28.336,0-53.867,12.238-71.587,31.706
	c23.853-3.728,53.787,3.387,76.047,19.959c15.056,11.209,25.651,26.085,30.639,43.021c5.764,19.569,4.231,41.592-4.555,65.457
	c-1.116,3.032-3.986,4.911-7.039,4.911c-0.86,0-1.735-0.149-2.59-0.464c-3.887-1.431-5.878-5.742-4.447-9.629
	c8.165-22.177,16.297-63.523-20.965-91.264c-27.036-20.128-64.659-22.342-81.58-11.157c-6.853,13.273-10.728,28.323-10.728,44.263
	c0,4.135-3.347,7.488-7.48,7.499c0.119,17.552,0.955,48.587,6.805,60.609C88.163,238.063,90.169,237.075,92.409,237.075z"/>
<path id="SVGCleanerId_0" style="fill:#38648C;" d="M440.646,354.068c-1.919,0-3.839-0.732-5.303-2.197
	c-18.499-18.499-28.687-43.059-28.687-69.155s10.188-50.655,28.687-69.155c2.929-2.929,7.678-2.929,10.606,0
	c2.929,2.929,2.929,7.677,0,10.606c-15.666,15.667-24.293,36.459-24.293,58.548s8.628,42.882,24.293,58.548
	c2.929,2.929,2.929,7.678,0,10.606C444.485,353.335,442.565,354.068,440.646,354.068z"/>
<path style="fill:#38648C;" d="M407.973,386.742c-1.919,0-3.839-0.732-5.303-2.197c-27.2-27.2-42.179-63.363-42.179-101.829
	s14.979-74.629,42.179-101.829c2.929-2.929,7.678-2.929,10.607,0s2.929,7.678,0,10.606c-24.366,24.367-37.786,56.763-37.786,91.222
	s13.419,66.855,37.786,91.222c2.929,2.929,2.929,7.678,0,10.606C411.812,386.009,409.892,386.742,407.973,386.742z"/>
<g>
	<path id="SVGCleanerId_0_1_" style="fill:#38648C;" d="M440.646,354.068c-1.919,0-3.839-0.732-5.303-2.197
		c-18.499-18.499-28.687-43.059-28.687-69.155s10.188-50.655,28.687-69.155c2.929-2.929,7.678-2.929,10.606,0
		c2.929,2.929,2.929,7.677,0,10.606c-15.666,15.667-24.293,36.459-24.293,58.548s8.628,42.882,24.293,58.548
		c2.929,2.929,2.929,7.678,0,10.606C444.485,353.335,442.565,354.068,440.646,354.068z"/>
</g>
<path id="SVGCleanerId_1" style="fill:#38648C;" d="M473.274,321.44c-1.919,0-3.839-0.732-5.303-2.197
	c-9.77-9.77-15.15-22.742-15.15-36.527c0-13.784,5.38-26.756,15.15-36.527c2.93-2.929,7.677-2.929,10.607-0.001
	c2.929,2.929,2.929,7.678,0.001,10.607c-6.937,6.937-10.757,16.143-10.757,25.92c0,9.778,3.82,18.983,10.757,25.92
	c2.929,2.929,2.929,7.678,0,10.606C477.113,320.708,475.193,321.44,473.274,321.44z"/>
<g>
	<path id="SVGCleanerId_1_1_" style="fill:#38648C;" d="M473.274,321.44c-1.919,0-3.839-0.732-5.303-2.197
		c-9.77-9.77-15.15-22.742-15.15-36.527c0-13.784,5.38-26.756,15.15-36.527c2.93-2.929,7.677-2.929,10.607-0.001
		c2.929,2.929,2.929,7.678,0.001,10.607c-6.937,6.937-10.757,16.143-10.757,25.92c0,9.778,3.82,18.983,10.757,25.92
		c2.929,2.929,2.929,7.678,0,10.606C477.113,320.708,475.193,321.44,473.274,321.44z"/>
</g>
<g>
</g>
<g>
</g>
<g>
</g>
<g>
</g>
<g>
</g>
<g>
</g>
<g>
</g>
<g>
</g>
<g>
</g>
<g>
</g>
<g>
</g>
<g>
</g>
<g>
</g>
<g>
</g>
<g>
</g>
</svg>
