<?xml version="1.0" encoding="iso-8859-1"?>
<!-- Generator: Adobe Illustrator 19.0.0, SVG Export Plug-In . SVG Version: 6.00 Build 0)  -->
<svg version="1.1" id="Capa_1" xmlns="http://www.w3.org/2000/svg" xmlns:xlink="http://www.w3.org/1999/xlink" x="0px" y="0px"
	 viewBox="0 0 512 512" style="enable-background:new 0 0 512 512;" xml:space="preserve">
<path style="fill:#F9E78D;" d="M388.27,512c16.205,0,28.388-14.779,25.308-30.689c-14.321-73.967-79.427-129.82-157.578-129.82
	s-143.257,55.853-157.578,129.82C95.342,497.221,107.525,512,123.73,512H388.27z"/>
<g>
	<path style="fill:#495059;" d="M200.188,476.957h-53.049c-5.229,0-9.469-4.239-9.469-9.469v-9.319c0-5.229,4.239-9.469,9.469-9.469
		h53.049c5.229,0,9.469,4.239,9.469,9.469v9.319C209.658,472.718,205.419,476.957,200.188,476.957z"/>
	<path style="fill:#495059;" d="M311.811,476.957h53.049c5.229,0,9.469-4.239,9.469-9.469v-9.319c0-5.229-4.239-9.469-9.469-9.469
		h-53.049c-5.229,0-9.469,4.239-9.469,9.469v9.319C302.342,472.718,306.582,476.957,311.811,476.957z"/>
</g>
<g>
	<rect x="232.91" y="387.42" style="opacity:0.15;fill:#8D4330;enable-background:new    ;" width="46.19" height="124.58"/>
	<path style="opacity:0.15;fill:#8D4330;enable-background:new    ;" d="M255.999,434.739c42.328,0,81.622-13.215,113.996-35.721
		c-29.086-29.345-69.415-47.526-113.996-47.526s-84.911,18.182-113.996,47.526C174.378,421.523,213.671,434.739,255.999,434.739z"/>
</g>
<circle style="fill:#F5D7B7;" cx="77.13" cy="224.13" r="35.836"/>
<circle style="opacity:0.25;fill:#8D4330;enable-background:new    ;" cx="77.13" cy="224.13" r="35.836"/>
<circle style="fill:#F5D7B7;" cx="434.87" cy="224.13" r="35.836"/>
<circle style="opacity:0.25;fill:#8D4330;enable-background:new    ;" cx="434.87" cy="224.13" r="35.836"/>
<circle style="fill:#F5D7B7;" cx="255.999" cy="234.53" r="178.87"/>
<g>
	<ellipse style="fill:#F8B8BD;" cx="155.16" cy="269.87" rx="37.21" ry="29.63"/>
	<ellipse style="fill:#F8B8BD;" cx="356.84" cy="269.87" rx="37.21" ry="29.63"/>
</g>
<g>
	<path style="fill:#495059;" d="M176.846,247.809c-4.142,0-7.5-3.358-7.5-7.5V227.17c0-4.142,3.358-7.5,7.5-7.5s7.5,3.358,7.5,7.5
		v13.139C184.346,244.451,180.988,247.809,176.846,247.809z"/>
	<path style="fill:#495059;" d="M335.153,247.809c-4.142,0-7.5-3.358-7.5-7.5V227.17c0-4.142,3.358-7.5,7.5-7.5s7.5,3.358,7.5,7.5
		v13.139C342.653,244.451,339.295,247.809,335.153,247.809z"/>
	<path style="fill:#495059;" d="M255.999,257.899c-10.165,0-19.831-4.403-26.523-12.08c-2.721-3.122-2.396-7.86,0.727-10.582
		c3.124-2.721,7.859-2.396,10.582,0.727c3.841,4.407,9.386,6.935,15.214,6.935c5.828,0,11.373-2.528,15.214-6.935
		c2.722-3.123,7.459-3.447,10.582-0.727c3.123,2.722,3.448,7.46,0.727,10.582C275.832,253.496,266.165,257.899,255.999,257.899z"/>
</g>
<path style="opacity:0.1;fill:#8D4330;enable-background:new    ;" d="M353.243,384.667
	C245.686,394.216,40.247,248.923,189.96,68.255C123.863,94.53,77.133,159.071,77.133,234.53
	c0,98.785,80.081,178.867,178.867,178.867C291.859,413.397,325.25,402.837,353.243,384.667z"/>
<g>
	<path style="fill:#495059;" d="M86.001,157.536c-22.383,33.404-18.176,63.55-8.868,76.995
		c9.308,13.444,47.124-60.456,52.886-71.201L86.001,157.536z"/>
	<path style="fill:#495059;" d="M425.999,157.536c22.383,33.404,18.176,63.55,8.868,76.995
		c-9.309,13.444-47.124-60.456-52.886-71.201L425.999,157.536z"/>
</g>
<path style="fill:#E68392;" d="M255.999,168.552c55.855,0,148.86-5.196,178.867-12.579
	C391.025,43.179,314.016,29.636,255.999,29.636S120.975,43.179,77.133,155.973C107.14,163.356,200.145,168.552,255.999,168.552z"/>
<path style="opacity:0.2;fill:#8D4330;enable-background:new    ;" d="M255.999,168.552c55.855,0,148.86-5.196,178.867-12.579
	C391.025,43.179,314.016,29.636,255.999,29.636S120.975,43.179,77.133,155.973C107.14,163.356,200.145,168.552,255.999,168.552z"/>
<path style="fill:#E68392;" d="M286.383,16.496L286.383,16.496c-3.388,0-6.244-2.53-6.652-5.894l0,0
	C278.997,4.551,273.859,0,267.764,0h-23.528c-6.096,0-11.233,4.551-11.967,10.603l0,0c-0.408,3.364-3.263,5.894-6.652,5.894l0,0
	c-11.345,0-21.13,7.968-23.429,19.078l-27.514,132.978h162.652L309.812,35.574C307.513,24.464,297.728,16.496,286.383,16.496z"/>
<path style="fill:#F8B8BD;" d="M255.999,188.735c-92.528,0-157.201-5.784-209.698-18.754c-10.821-2.673-17.427-13.613-14.753-24.435
	c2.673-10.821,13.614-17.428,24.435-14.753c48.534,11.991,112.091,17.575,200.017,17.575s151.483-5.585,200.017-17.575
	c10.818-2.675,21.761,3.931,24.435,14.753c2.674,10.821-3.932,21.761-14.753,24.435
	C413.202,182.951,348.528,188.735,255.999,188.735z"/>
<path style="fill:#FFFFFF;" d="M269.353,118.467L269.353,118.467c-4.253,0.845-8.324,2.434-12.024,4.695l0,0
	c-0.816,0.498-1.842,0.498-2.658,0l0,0c-3.701-2.26-7.771-3.85-12.024-4.695l0,0c-4.523-0.899-8.022-4.498-8.791-9.046
	l-2.008-11.873c-0.984-5.816-3.393-11.298-7.012-15.956l0,0c-0.715-0.921-0.715-2.209,0-3.129l0,0
	c3.619-4.658,6.028-10.14,7.012-15.956l2.008-11.873c0.769-4.547,4.267-8.147,8.791-9.046l0,0c4.253-0.845,8.324-2.434,12.024-4.694
	l0,0c0.816-0.498,1.842-0.498,2.658,0l0,0c3.701,2.26,7.771,3.85,12.024,4.694l0,0c4.523,0.899,8.022,4.498,8.791,9.046
	l2.008,11.873c0.984,5.816,3.393,11.298,7.012,15.956l0,0c0.715,0.92,0.715,2.209,0,3.129l0,0
	c-3.619,4.658-6.028,10.14-7.012,15.956l-2.008,11.873C277.375,113.969,273.877,117.568,269.353,118.467z"/>
<path style="fill:#495059;" d="M264.051,87.527h-16.103c-4.142,0-7.5-3.358-7.5-7.5s3.358-7.5,7.5-7.5h16.103
	c4.142,0,7.5,3.358,7.5,7.5S268.193,87.527,264.051,87.527z"/>
<path style="opacity:0.15;fill:#8D4330;enable-background:new    ;" d="M300.346,147.838c-14.061,0.353-28.816,0.531-44.347,0.531
	c-87.926,0-151.483-5.585-200.017-17.575c-10.82-2.676-21.761,3.932-24.435,14.753s3.932,21.761,14.753,24.435
	c52.497,12.97,117.17,18.754,209.698,18.754c26.545,0,50.788-0.479,73.118-1.464C306.286,182.269,289.655,160.936,300.346,147.838z"
	/>
<g>
</g>
<g>
</g>
<g>
</g>
<g>
</g>
<g>
</g>
<g>
</g>
<g>
</g>
<g>
</g>
<g>
</g>
<g>
</g>
<g>
</g>
<g>
</g>
<g>
</g>
<g>
</g>
<g>
</g>
</svg>
