<svg id="Capa_1" enable-background="new 0 0 512 512" height="512" viewBox="0 0 512 512" width="512" xmlns="http://www.w3.org/2000/svg"><g><path d="m162.737 73.287c20.284 20.284 58.964 91.851 38.68 112.135s-91.851-18.396-112.135-38.68-20.284-53.171 0-73.455 53.171-20.285 73.455 0z" fill="#f6ee86"/><path d="m89.282 146.742c20.284 20.284 91.851 58.964 112.135 38.68 10.538-10.538 5.159-34.917-5.285-58.756h-119.323c2.477 7.335 6.627 14.23 12.473 20.076z" fill="#f1d88c"/><path d="m248.151 73.287c-20.284 20.284-58.964 91.851-38.68 112.135s91.851-18.396 112.135-38.68 20.284-53.171 0-73.455c-20.284-20.285-53.171-20.285-73.455 0z" fill="#f6ee86"/><g fill="#f1d88c"><path d="m214.756 126.665c-10.444 23.839-15.823 48.218-5.285 58.756 20.284 20.284 91.851-18.396 112.135-38.68 5.846-5.846 9.996-12.741 12.473-20.077h-119.323z"/><path d="m172.084 167.086c-2.584 0-5.098-1.336-6.49-3.731-9.195-15.811-26.862-34.325-46.106-48.318-3.351-2.436-4.092-7.126-1.656-10.477s7.128-4.091 10.477-1.655c20.822 15.139 40.077 35.413 50.253 52.909 2.082 3.58.868 8.171-2.713 10.254-1.188.69-2.485 1.018-3.765 1.018z"/><path d="m238.805 167.086c-1.28 0-2.577-.328-3.764-1.018-3.581-2.083-4.795-6.673-2.713-10.254 10.176-17.496 29.431-37.77 50.253-52.909 3.35-2.436 8.041-1.694 10.477 1.655 2.436 3.35 1.694 8.041-1.656 10.477-19.244 13.993-36.911 32.507-46.106 48.318-1.394 2.395-3.908 3.731-6.491 3.731z"/></g><path d="m485.419 306.776h-178.403v147.151h178.403c14.68 0 26.581-11.901 26.581-26.581v-93.989c0-14.68-11.901-26.581-26.581-26.581z" fill="#f6ee86"/><path d="m307.016 306.776v147.151h138.787c-28.183-18.915-51.682-70.51-46.606-147.151z" fill="#f1d88c"/><path d="m470.237 306.776h-163.221v147.151h16.07z" fill="#b9e6ff"/><path d="m399.197 306.776h-92.181v147.151h16.07l79.592-79.591c-3.711-19.597-5.16-42.206-3.481-67.56z" fill="#8bd5fd"/><path d="m410.519 453.927h74.9c14.68 0 26.581-11.901 26.581-26.581v-74.9z" fill="#b9e6ff"/><path d="m445.803 453.927c-6.276-4.212-12.319-10.047-17.867-17.417l-17.417 17.417z" fill="#8bd5fd"/><path d="m390.2 219.034h-369.511c-11.426 0-20.689-9.262-20.689-20.688v-8.001c0-24.39 19.772-44.162 44.162-44.162h322.564c24.39 0 44.163 19.772 44.163 44.162v8.001c0 11.426-9.263 20.688-20.689 20.688z" fill="#a68bd5"/><path d="m375.217 219.034h-339.545v193.051c0 23.108 18.733 41.841 41.841 41.841h255.863c23.108 0 41.841-18.733 41.841-41.841z" fill="#a68bd5"/><path d="m268.918 385.424c-28.586 0-51.76 23.174-51.76 51.76 0 5.862.989 11.489 2.784 16.743h97.951c1.796-5.254 2.784-10.881 2.784-16.743.001-28.586-23.173-51.76-51.759-51.76z" fill="#b9e6ff"/><path d="m35.672 412.086c0 23.108 18.733 41.841 41.841 41.841h60.766c-16.754-31.705-33.392-112.436-37.326-176.804-.418-6.837 5.05-12.598 11.9-12.598h262.364v-45.49h-339.545z" fill="#807bce"/><path d="m299.158 256c0 28.586 23.173 51.76 51.76 51.76 8.784 0 17.053-2.195 24.299-6.056v-82.669h-60.515c-9.588 9.394-15.544 22.481-15.544 36.965z" fill="#b9e6ff"/><path d="m299.158 256c0 2.905.251 5.75.711 8.524h75.348v-45.49h-60.515c-9.588 9.395-15.544 22.482-15.544 36.966z" fill="#8bd5fd"/><path d="m169.523 219.034h71.842v234.892h-71.842z" fill="#f6ee86"/><path d="m169.523 219.034h71.842v45.49h-71.842z" fill="#f1d88c"/><path d="m151.459 146.182h107.97v72.853h-107.97z" fill="#f6ee86"/><path d="m45.064 264.424c-3.209 0-6.344.307-9.392.866v101.788c3.047.559 6.183.866 9.392.866 28.586 0 51.76-23.174 51.76-51.76-.001-28.586-23.174-51.76-51.76-51.76z" fill="#8bd5fd"/></g></svg>