<svg height="512pt" viewBox="-34 0 512 512" width="512pt" xmlns="http://www.w3.org/2000/svg"><path d="m152.835938 103.492188h-94.117188c-17.480469 0-31.652344-14.167969-31.652344-31.648438v-52.265625h157.417969v52.265625c0 17.480469-14.167969 31.648438-31.648437 31.648438zm0 0" fill="#b0f0ef"/><g fill="#76e7e7"><path d="m66.96875 82.917969c-4.269531 0-7.726562-3.460938-7.726562-7.726563v-48.109375c0-4.265625 3.457031-7.726562 7.726562-7.726562 4.265625 0 7.726562 3.460937 7.726562 7.726562v48.109375c0 4.265625-3.460937 7.726563-7.726562 7.726563zm0 0"/><path d="m105.777344 82.917969c-4.269532 0-7.726563-3.460938-7.726563-7.726563v-48.109375c0-4.265625 3.457031-7.726562 7.726563-7.726562 4.269531 0 7.726562 3.460937 7.726562 7.726562v48.109375c0 4.265625-3.457031 7.726563-7.726562 7.726563zm0 0"/><path d="m144.585938 82.917969c-4.269532 0-7.726563-3.460938-7.726563-7.726563v-48.109375c0-4.265625 3.457031-7.726562 7.726563-7.726562 4.269531 0 7.726562 3.460937 7.726562 7.726562v48.109375c0 4.265625-3.457031 7.726563-7.726562 7.726563zm0 0"/></g><path d="m424.203125 39.15625h-404.625c-10.8125 0-19.578125-8.765625-19.578125-19.578125s8.765625-19.578125 19.578125-19.578125h404.625c10.816406 0 19.582031 8.765625 19.582031 19.578125s-8.765625 19.578125-19.582031 19.578125zm0 0" fill="#ffd4a3"/><path d="m65.957031 19.578125c0-10.8125 8.765625-19.578125 19.578125-19.578125h-65.957031c-10.8125 0-19.578125 8.765625-19.578125 19.578125s8.765625 19.578125 19.578125 19.578125h65.957031c-10.8125 0-19.578125-8.765625-19.578125-19.578125zm0 0" fill="#ffbe73"/><path d="m425.414062 270.265625c-2.589843-58.394531-49.730468-105.777344-108.113281-108.640625-25.652343-1.257812-49.550781 5.980469-69.140625 19.140625-15.890625 10.675781-36.648437 10.675781-52.539062 0-19.589844-13.160156-43.484375-20.398437-69.140625-19.140625-58.382813 2.863281-105.519531 50.246094-108.109375 108.640625-1.03125 23.203125 4.902344 44.941406 15.855468 63.347656l-.011718.003907s.023437.027343.039062.042968c5.269532 8.851563 69.019532 86.398438 85.769532 150.363282 4.316406 16.492187 19.226562 27.976562 36.277343 27.976562 19.398438 0 35.359375-14.8125 37.363281-34.109375 1.78125-17.164063 8.488282-34.367187 28.226563-34.367187 19.742187 0 26.449219 17.203124 28.230469 34.367187 2.003906 19.296875 17.964844 34.109375 37.363281 34.109375 17.046875 0 31.957031-11.484375 36.277344-27.976562 16.75-63.964844 80.496093-141.511719 85.769531-150.363282.015625-.015625.039062-.042968.039062-.042968l-.011718-.003907c10.949218-18.40625 16.882812-40.144531 15.855468-63.347656zm0 0" fill="#c2eafb"/><path d="m195.625 180.765625c-19.589844-13.160156-43.488281-20.398437-69.140625-19.140625-58.382813 2.859375-105.523437 50.246094-108.113281 108.640625-1.027344 23.203125 4.90625 44.941406 15.855468 63.347656l-.011718.003907s.023437.027343.039062.042968c5.273438 8.851563 69.019532 86.398438 85.769532 150.363282 4.316406 16.492187 19.226562 27.976562 36.277343 27.976562 19.398438 0 35.359375-14.8125 37.363281-34.109375 1.042969-10.050781 3.777344-20.117187 9.824219-26.734375-26.335937-90.671875-107.632812-141.234375-91.285156-206.5625 18.871094-75.398438 83.421875-63.828125 83.421875-63.828125zm0 0" fill="#91d4f2"/><path d="m221.890625 333.984375c-15.988281 0-28.945313-12.960937-28.945313-28.949219v-21.046875c0-4.363281 3.535157-7.902343 7.902344-7.902343h42.089844c4.367188 0 7.902344 3.539062 7.902344 7.902343v21.046875c0 15.988282-12.960938 28.949219-28.949219 28.949219zm0 0" fill="#454545"/><path d="m155.9375 305.988281c0-13.578125-13.824219-24.589843-30.878906-24.589843-17.054688 0-30.878906 11.011718-30.878906 24.589843 0 13.582031 13.824218 24.589844 30.878906 24.589844 17.054687 0 30.878906-11.007813 30.878906-24.589844zm0 0" fill="#ff899f"/><path d="m349.601562 305.988281c0-13.578125-13.824218-24.589843-30.875-24.589843-17.054687 0-30.878906 11.011718-30.878906 24.589843 0 13.582031 13.824219 24.589844 30.878906 24.589844 17.050782 0 30.875-11.007813 30.875-24.589844zm0 0" fill="#ff899f"/><path d="m304.984375 291.539062c-4.269531 0-7.726563-3.460937-7.726563-7.726562v-12.828125c0-4.265625 3.457032-7.726563 7.726563-7.726563 4.265625 0 7.726563 3.460938 7.726563 7.726563v12.828125c0 4.265625-3.460938 7.726562-7.726563 7.726562zm0 0" fill="#454545"/><path d="m138.800781 291.539062c-4.269531 0-7.726562-3.460937-7.726562-7.726562v-12.828125c0-4.265625 3.457031-7.726563 7.726562-7.726563s7.726563 3.460938 7.726563 7.726563v12.828125c0 4.265625-3.457032 7.726562-7.726563 7.726562zm0 0" fill="#454545"/></svg>