<svg viewBox="0 -22 512.001 512" xmlns="http://www.w3.org/2000/svg"><g fill="#e0824a"><path d="m461.859375 68.632812h-411.71875c-10.621094 0-19.234375-8.613281-19.234375-19.238281s8.613281-19.238281 19.234375-19.238281h411.714844c10.625 0 19.238281 8.613281 19.238281 19.238281s-8.613281 19.238281-19.234375 19.238281zm0 0"/><path d="m461.859375 321.765625h-411.71875c-10.621094 0-19.234375-8.613281-19.234375-19.238281s8.613281-19.238282 19.234375-19.238282h411.714844c10.625 0 19.238281 8.613282 19.238281 19.238282s-8.613281 19.238281-19.234375 19.238281zm0 0"/><path d="m461.859375 195.199219h-411.71875c-10.621094 0-19.234375-8.613281-19.234375-19.238281s8.613281-19.238282 19.234375-19.238282h411.714844c10.625 0 19.238281 8.613282 19.238281 19.238282s-8.613281 19.238281-19.234375 19.238281zm0 0"/></g><path d="m255.894531 98.789062c-15.140625 0-27.414062-12.273437-27.414062-27.414062v-43.960938c0-15.140624 12.273437-27.414062 27.414062-27.414062 15.136719 0 27.410157 12.273438 27.410157 27.414062v43.960938c0 15.140625-12.273438 27.414062-27.410157 27.414062zm0 0" fill="#fd6f71"/><path d="m249.085938 71.375v-43.960938c0-11.496093 7.078124-21.332031 17.109374-25.40625-3.179687-1.289062-6.65625-2.007812-10.300781-2.007812-15.140625 0-27.414062 12.273438-27.414062 27.414062v43.960938c0 15.140625 12.273437 27.414062 27.414062 27.414062 3.644531 0 7.117188-.71875 10.300781-2.007812-10.03125-4.074219-17.109374-13.910156-17.109374-25.40625zm0 0" fill="#e36465"/><path d="m201.070312 98.789062c-15.140624 0-27.414062-12.273437-27.414062-27.414062v-43.960938c0-15.140624 12.273438-27.414062 27.414062-27.414062 15.136719 0 27.410157 12.273438 27.410157 27.414062v43.960938c0 15.140625-12.273438 27.414062-27.410157 27.414062zm0 0" fill="#fd6f71"/><path d="m194.261719 71.375v-43.960938c0-11.496093 7.078125-21.332031 17.109375-25.40625-3.179688-1.289062-6.65625-2.007812-10.300782-2.007812-15.140624 0-27.414062 12.273438-27.414062 27.414062v43.960938c0 15.140625 12.273438 27.414062 27.414062 27.414062 3.644532 0 7.117188-.71875 10.300782-2.007812-10.03125-4.074219-17.109375-13.910156-17.109375-25.40625zm0 0" fill="#e36465"/><path d="m344.074219 351.921875c-15.136719 0-27.410157-12.273437-27.410157-27.414063v-43.960937c0-15.140625 12.273438-27.414063 27.410157-27.414063 15.140625 0 27.414062 12.273438 27.414062 27.414063v43.960937c0 15.140626-12.273437 27.414063-27.414062 27.414063zm0 0" fill="#58b78c"/><path d="m337.269531 324.507812v-43.960937c0-11.496094 7.078125-21.332031 17.109375-25.40625-3.183594-1.289063-6.65625-2.007813-10.304687-2.007813-15.136719 0-27.410157 12.273438-27.410157 27.414063v43.960937c0 15.140626 12.273438 27.414063 27.410157 27.414063 3.648437 0 7.121093-.71875 10.304687-2.007813-10.035156-4.074218-17.109375-13.910156-17.109375-25.40625zm0 0" fill="#46926f"/><path d="m167.925781 351.921875c-15.140625 0-27.414062-12.273437-27.414062-27.414063v-43.960937c0-15.140625 12.273437-27.414063 27.414062-27.414063 15.136719 0 27.410157 12.273438 27.410157 27.414063v43.960937c0 15.140626-12.273438 27.414063-27.410157 27.414063zm0 0" fill="#58b78c"/><path d="m161.113281 324.507812v-43.960937c0-11.496094 7.078125-21.332031 17.113281-25.40625-3.183593-1.289063-6.660156-2.007813-10.304687-2.007813-15.136719 0-27.410156 12.273438-27.410156 27.414063v43.960937c0 15.140626 12.273437 27.414063 27.410156 27.414063 3.644531 0 7.121094-.71875 10.304687-2.007813-10.035156-4.074218-17.113281-13.910156-17.113281-25.40625zm0 0" fill="#46926f"/><path d="m330.371094 225.355469c-15.140625 0-27.414063-12.273438-27.414063-27.410157v-43.964843c0-15.140625 12.273438-27.414063 27.414063-27.414063 15.136718 0 27.410156 12.273438 27.410156 27.414063v43.964843c0 15.136719-12.269531 27.410157-27.410156 27.410157zm0 0" fill="#fadc60"/><path d="m323.5625 197.941406v-43.960937c0-11.496094 7.078125-21.332031 17.109375-25.402344-3.179687-1.292969-6.65625-2.011719-10.300781-2.011719-15.140625 0-27.414063 12.273438-27.414063 27.414063v43.964843c0 15.136719 12.273438 27.410157 27.414063 27.410157 3.644531 0 7.117187-.71875 10.300781-2.007813-10.03125-4.074218-17.109375-13.910156-17.109375-25.40625zm0 0" fill="#e6cb59"/><path d="m275.546875 225.355469c-15.140625 0-27.414063-12.273438-27.414063-27.410157v-43.964843c0-15.140625 12.273438-27.414063 27.414063-27.414063 15.136719 0 27.410156 12.273438 27.410156 27.414063v43.964843c0 15.136719-12.273437 27.410157-27.410156 27.410157zm0 0" fill="#fadc60"/><path d="m268.738281 197.941406v-43.960937c0-11.496094 7.078125-21.332031 17.109375-25.402344-3.183594-1.292969-6.65625-2.011719-10.300781-2.011719-15.140625 0-27.414063 12.273438-27.414063 27.414063v43.964843c0 15.136719 12.273438 27.410157 27.414063 27.410157 3.644531 0 7.117187-.71875 10.300781-2.007813-10.03125-4.074218-17.109375-13.910156-17.109375-25.40625zm0 0" fill="#e6cb59"/><path d="m181.628906 225.355469c-15.136718 0-27.410156-12.273438-27.410156-27.410157v-43.964843c0-15.140625 12.273438-27.414063 27.410156-27.414063 15.140625 0 27.414063 12.273438 27.414063 27.414063v43.964843c0 15.136719-12.273438 27.410157-27.414063 27.410157zm0 0" fill="#fadc60"/><path d="m174.820312 197.941406v-43.960937c0-11.496094 7.078126-21.332031 17.113282-25.402344-3.183594-1.292969-6.660156-2.011719-10.304688-2.011719-15.136718 0-27.410156 12.273438-27.410156 27.414063v43.964843c0 15.136719 12.273438 27.410157 27.410156 27.410157 3.644532 0 7.121094-.71875 10.304688-2.007813-10.035156-4.074218-17.113282-13.910156-17.113282-25.40625zm0 0" fill="#e6cb59"/><path d="m115.574219 431.253906h-53.761719v-422.859375c0-4.636719 3.757812-8.394531 8.394531-8.394531h36.972657c4.636718 0 8.394531 3.757812 8.394531 8.394531zm0 0" fill="#fa9f6a"/><path d="m90.808594 0h-20.601563c-4.636719 0-8.394531 3.757812-8.394531 8.394531v422.859375h20.601562v-422.859375c0-4.636719 3.757813-8.394531 8.394532-8.394531zm0 0" fill="#eb8f59"/><path d="m450.1875 431.253906h-53.761719v-422.859375c0-4.636719 3.757813-8.394531 8.394531-8.394531h36.972657c4.636719 0 8.394531 3.757812 8.394531 8.394531zm0 0" fill="#fa9f6a"/><path d="m425.425781 0h-20.605469c-4.636718 0-8.394531 3.757812-8.394531 8.394531v422.859375h20.605469v-422.859375c-.003906-4.636719 3.757812-8.394531 8.394531-8.394531zm0 0" fill="#eb8f59"/><path d="m500.445312 467.699219h-488.890624c-6.382813 0-11.554688-5.171875-11.554688-11.554688v-42.359375c0-6.378906 5.171875-11.554687 11.554688-11.554687h488.890624c6.382813 0 11.554688 5.175781 11.554688 11.554687v42.359375c0 6.382813-5.171875 11.554688-11.554688 11.554688zm0 0" fill="#596674"/><path d="m30.90625 456.144531v-42.359375c0-6.382812 5.171875-11.554687 11.554688-11.554687h-30.90625c-6.382813 0-11.554688 5.175781-11.554688 11.554687v42.359375c0 6.382813 5.171875 11.554688 11.554688 11.554688h30.90625c-6.382813 0-11.554688-5.171875-11.554688-11.554688zm0 0" fill="#565c62"/></svg>