<svg id="Capa_1" enable-background="new 0 0 512 512" height="512" viewBox="0 0 512 512" width="512" xmlns="http://www.w3.org/2000/svg"><g><circle cx="70.382" cy="202.043" fill="#ffd3bd" r="54.375"/><circle cx="441.618" cy="202.043" fill="#ffbe9d" r="54.375"/><path d="m394.11 468.9c11.476 0 20.481-10.07 18.943-21.442-10.467-77.391-76.793-137.049-157.053-137.049s-146.586 59.658-157.053 137.049c-1.538 11.372 7.467 21.442 18.943 21.442z" fill="#e7889d"/><path d="m442.916 190.357c0-95.314-83.685-169.443-186.916-169.443s-186.916 74.129-186.916 169.443 83.685 170.839 186.916 170.839 186.916-75.525 186.916-170.839z" fill="#ffd3bd"/><path d="m195.944 29.678c-73.77 22.285-126.86 84.763-126.86 160.679 0 95.314 83.685 170.839 186.916 170.839 26.594 0 51.884-5.01 74.787-14.081-229.29-12.661-196.928-248.255-134.843-317.437z" fill="#ffbe9d"/><g><g><ellipse cx="155.635" cy="231.067" fill="#e7889d" rx="37.033" ry="29.491"/><ellipse cx="356.365" cy="231.067" fill="#e7889d" rx="37.033" ry="29.491"/><path d="m285.858 208.408c0-18.452-13.368-20.186-29.857-20.186-16.49 0-29.857 1.734-29.857 20.186s13.368 33.41 29.857 33.41 29.857-14.958 29.857-33.41z" fill="#4e5660"/></g><g fill="#4e5660"><path d="m161.826 203.358c-4.143 0-7.5-3.358-7.5-7.5v-15.122c0-4.142 3.357-7.5 7.5-7.5s7.5 3.358 7.5 7.5v15.122c0 4.142-3.357 7.5-7.5 7.5z"/><path d="m350.174 203.358c-4.142 0-7.5-3.358-7.5-7.5v-15.122c0-4.142 3.358-7.5 7.5-7.5 4.143 0 7.5 3.358 7.5 7.5v15.122c0 4.142-3.358 7.5-7.5 7.5z"/></g></g><path d="m258.08 12.703c50.612-16.029 130.218-16.975 171.749-2.345 7.89 2.779 11.541 11.871 7.634 19.268-9.096 17.221-19.628 30.395-33.128 41.066 26.969 8.549 50.772 38.809 56.382 69.545 1.486 8.145-4.602 15.701-12.873 16.06-58.475 2.532-160.715-29.238-189.763-46.224-29.048 16.986-131.288 48.756-189.763 46.224-8.271-.358-14.359-7.915-12.873-16.06 5.61-30.736 29.413-60.996 56.382-69.545-13.5-10.671-24.033-23.846-33.128-41.066-3.907-7.397-.256-16.488 7.634-19.268 41.528-14.631 121.135-13.684 171.747 2.345z" fill="#4e5660"/><g><path d="m262.067 352.611c-7.829-.862-14.313-6.299-16.962-13.716-2.92-8.177-7.567-15.738-13.98-22.151-25.516-25.516-66.041-20.033-94.418 8.345-28.377 28.377-33.861 68.902-8.344 94.418 6.412 6.412 13.973 11.06 22.151 13.98 7.418 2.649 12.854 9.133 13.716 16.962 1.766 16.033 8.482 31.161 20.291 42.969 29.924 29.924 75.902 21.946 109.182-11.334 33.28-33.279 41.258-79.257 11.334-109.182-11.809-11.808-26.937-18.525-42.97-20.291z" fill="#8daee1"/><path d="m201.852 301.325c-21.731-3.943-46.155 4.775-65.144 23.764-28.377 28.377-33.861 68.902-8.344 94.418 6.412 6.412 13.974 11.06 22.151 13.98 7.418 2.649 12.854 9.133 13.716 16.962 1.766 16.033 8.482 31.161 20.291 42.969 23.719 23.719 57.519 23.606 87.091 5.975-61.267-13.49-99.71-146.444-69.761-198.068z" fill="#6a95d6"/><path d="m125.296 249.137h43.092v172.173h-43.092z" fill="#fbf1cf" transform="matrix(.707 -.707 .707 .707 -194.03 202.018)"/><circle cx="215.205" cy="403.586" fill="#4e5660" r="32.011"/><path d="m44.602 217.997-3.526 8.748c-.498 1.235-1.477 2.214-2.712 2.712l-8.748 3.526c-12.781 5.152-15.598 21.994-5.189 31.025l32.674 28.348c6.828 5.924 17.073 5.561 23.465-.831l22.579-22.579c6.392-6.392 6.755-16.637.831-23.465l-28.349-32.674c-9.031-10.409-25.873-7.592-31.025 5.19z" fill="#6a95d6"/><g fill="#eed076"><path d="m140.532 342.959h43.092v15h-43.092z" transform="matrix(.707 -.707 .707 .707 -200.346 217.269)"/><path d="m100.482 302.909h43.092v15h-43.092z" transform="matrix(.707 -.707 .707 .707 -183.757 177.217)"/></g><path d="m251.642 469.518c-1.919 0-3.839-.733-5.304-2.197-2.929-2.929-2.929-7.678 0-10.607l21.995-21.995c2.93-2.929 7.678-2.929 10.607 0s2.929 7.678 0 10.606l-21.995 21.995c-1.465 1.466-3.384 2.198-5.303 2.198z" fill="#fbf1cf"/></g></g></svg>