<svg height="512pt" viewBox="-10 0 512 512" width="512pt" xmlns="http://www.w3.org/2000/svg"><path d="m475.617188 0h-192.3125c-9.300782 0-16.84375 7.539062-16.84375 16.84375v192.3125c0 9.300781 7.542968 16.84375 16.84375 16.84375h192.3125c9.300781 0 16.84375-7.542969 16.84375-16.84375v-192.3125c0-9.304688-7.542969-16.84375-16.84375-16.84375zm0 0" fill="#7f9cdc"/><path d="m297.367188 209.15625v-192.3125c0-9.304688 7.539062-16.84375 16.84375-16.84375h-30.90625c-9.300782 0-16.84375 7.539062-16.84375 16.84375v192.3125c0 9.300781 7.542968 16.84375 16.84375 16.84375h30.90625c-9.304688 0-16.84375-7.539062-16.84375-16.84375zm0 0" fill="#6686cc"/><path d="m365.460938 256c0 71.246094-57.753907 129-129 129-71.246094 0-129-57.753906-129-129s57.753906-129 129-129c71.246093 0 129 57.753906 129 129zm0 0" fill="#ee8688"/><path d="m138.367188 256c0-66.015625 49.589843-120.4375 113.546874-128.074219-5.066406-.605469-10.222656-.925781-15.453124-.925781-71.242188 0-129 57.753906-129 129s57.753906 129 129 129c5.230468 0 10.386718-.316406 15.453124-.921875-63.957031-7.640625-113.546874-62.0625-113.546874-128.078125zm0 0" fill="#cf5564"/><path d="m283.050781 495.035156-131.554687-195.601562c-4.3125-6.414063-13.753906-6.414063-18.070313 0l-131.554687 195.601562c-4.863282 7.230469.320312 16.964844 9.035156 16.964844h263.109375c8.714844 0 13.898437-9.734375 9.035156-16.964844zm0 0" fill="#f1cf79"/><path d="m32.777344 495.035156 125.136718-186.058594-6.417968-9.542968c-4.316406-6.414063-13.757813-6.414063-18.070313 0l-131.554687 195.601562c-4.863282 7.230469.320312 16.964844 9.035156 16.964844h30.90625c-8.714844 0-13.898438-9.734375-9.035156-16.964844zm0 0" fill="#d4b25f"/><g fill="#4e555c"><path d="m175.722656 266.289062c-4.269531 0-7.726562-3.457031-7.726562-7.726562v-10.992188c0-4.265624 3.457031-7.726562 7.726562-7.726562 4.265625 0 7.722656 3.460938 7.722656 7.726562v10.992188c0 4.269531-3.457031 7.726562-7.722656 7.726562zm0 0"/><path d="m297.203125 266.289062c-4.269531 0-7.726563-3.457031-7.726563-7.726562v-10.992188c0-4.265624 3.457032-7.726562 7.726563-7.726562 4.265625 0 7.726563 3.460938 7.726563 7.726562v10.992188c0 4.269531-3.460938 7.726562-7.726563 7.726562zm0 0"/><path d="m236.460938 272.15625c-8.070313 0-15.65625-3.378906-20.808594-9.273438-2.808594-3.210937-2.480469-8.09375.730468-10.902343 3.214844-2.808594 8.09375-2.480469 10.902344.730469 2.21875 2.535156 5.5625 3.992187 9.175782 3.992187 3.613281 0 6.957031-1.453125 9.175781-3.992187 2.804687-3.210938 7.6875-3.539063 10.898437-.730469 3.214844 2.808593 3.542969 7.6875.734375 10.902343-5.152343 5.894532-12.734375 9.273438-20.808593 9.273438zm0 0"/></g></svg>