<svg id="Capa_1" enable-background="new 0 0 497 497" height="512" viewBox="0 0 497 497" width="512" xmlns="http://www.w3.org/2000/svg"><g><path d="m442.651 272.049c-45.339-11.89-75.517-33.077-75.517-57.232 0-16.522 14.119-31.654 37.552-43.372 49.427-24.718 52.154-91.7 4.315-119.136-41.476-23.786-90.966-37.604-144.115-37.604-146.292 0-264.886 104.673-264.886 233.795s118.594 233.795 264.886 233.795c89.999 0 169.506-39.618 217.37-100.171 31.266-39.554 10.349-96.975-39.605-110.075zm-150.389-102.992c-36.963 0-66.927-20.29-66.927-45.318 0-25.029 29.964-45.318 66.927-45.318s66.927 20.29 66.927 45.318-29.964 45.318-66.927 45.318z" fill="#fdc072"/><path d="m30 248.5c0-124.706 110.625-226.597 249.984-233.42-4.997-.248-10.03-.375-15.097-.375-146.293 0-264.887 104.673-264.887 233.795s118.594 233.795 264.886 233.795c5.052 0 10.068-.132 15.05-.378-139.336-6.844-249.936-108.725-249.936-233.417z" fill="#e4996d"/><circle cx="127.848" cy="151.746" fill="#f9ee80" r="36.496"/><circle cx="89.136" cy="254.212" fill="#ff8a98" r="36.496"/><circle cx="244.285" cy="398.306" fill="#bd9cde" r="36.496"/><circle cx="138.69" cy="354.677" fill="#93ecea" r="36.496"/><g><g><ellipse cx="275.852" cy="296.153" fill="#423e4f" rx="20.99" ry="23.488"/></g></g><g><path d="m214.055 289.6c-4.143 0-7.5-3.358-7.5-7.5 0-5.566-4.528-10.094-10.094-10.094s-10.094 4.528-10.094 10.094c0 4.142-3.357 7.5-7.5 7.5s-7.5-3.358-7.5-7.5c0-13.837 11.257-25.094 25.094-25.094s25.094 11.257 25.094 25.094c0 4.142-3.358 7.5-7.5 7.5z" fill="#423e4f"/></g><g><path d="m371.32 289.6c-4.143 0-7.5-3.358-7.5-7.5 0-5.566-4.527-10.094-10.093-10.094s-10.094 4.528-10.094 10.094c0 4.142-3.357 7.5-7.5 7.5s-7.5-3.358-7.5-7.5c0-13.837 11.257-25.094 25.094-25.094 13.836 0 25.093 11.257 25.093 25.094 0 4.142-3.357 7.5-7.5 7.5z" fill="#423e4f"/></g></g></svg>