<?xml version="1.0" encoding="iso-8859-1"?>
<!-- Generator: Adobe Illustrator 19.0.0, SVG Export Plug-In . SVG Version: 6.00 Build 0)  -->
<svg version="1.1" id="Capa_1" xmlns="http://www.w3.org/2000/svg" xmlns:xlink="http://www.w3.org/1999/xlink" x="0px" y="0px"
	 viewBox="0 0 512 512" style="enable-background:new 0 0 512 512;" xml:space="preserve">
<path style="fill:#FADC60;" d="M455.133,473.402l-21.293-67.936l-39.21,6.278l-33.351,51.535l45.617,41.087
	c5.457,4.915,12.54,7.635,19.885,7.635C446.836,512,461.131,492.54,455.133,473.402z"/>
<path style="fill:#E6CB59;" d="M447.385,491.396c-7.344,0-14.428-2.72-19.885-7.635l-45.617-41.087l20.857-32.23l-8.111,1.299
	l-33.351,51.535l45.617,41.087c5.457,4.915,12.54,7.635,19.885,7.635c13.991,0,25.167-9.475,28.617-21.699
	C452.864,491.005,450.184,491.396,447.385,491.396z"/>
<path style="fill:#FADC60;" d="M56.867,473.402l21.293-67.936l39.21,6.278l33.351,51.535l-45.617,41.087
	C99.646,509.28,92.563,512,85.219,512C65.164,512,50.869,492.54,56.867,473.402z"/>
<path style="fill:#E6CB59;" d="M87.772,483.704l21.293-67.936l12.168,1.948l-3.865-5.972l-39.209-6.278l-21.293,67.936
	C50.869,492.539,65.164,512,85.219,512c2.587,0,5.14-0.344,7.602-0.996C87.025,503.662,84.657,493.643,87.772,483.704z"/>
<circle style="fill:#3A484A;" cx="256" cy="24.545" r="24.545"/>
<circle style="fill:#6EE3FF;" cx="126.949" cy="119.831" r="93.448"/>
<path style="fill:#42C3E2;" d="M64.407,119.831c0-46.344,33.738-84.8,77.992-92.166c-5.027-0.837-10.187-1.279-15.453-1.279
	c-51.608,0-93.445,41.837-93.445,93.446s41.837,93.446,93.445,93.446c5.265,0,10.425-0.443,15.453-1.279
	C98.145,204.631,64.407,166.174,64.407,119.831z"/>
<circle style="fill:#6EE3FF;" cx="385.051" cy="119.831" r="93.448"/>
<path style="fill:#42C3E2;" d="M332.815,140.434c0-51.608,41.837-93.446,93.445-93.446c6.822,0,13.472,0.738,19.878,2.126
	c-16.381-14.163-37.732-22.73-61.086-22.73c-51.608,0-93.445,41.837-93.445,93.446c0,44.786,31.509,82.206,73.567,91.319
	C345.357,194.015,332.815,168.689,332.815,140.434z"/>
<circle style="fill:#FD6F71;" cx="256" cy="256.515" r="231.976"/>
<circle style="fill:none;stroke:#000000;stroke-width:15;stroke-linecap:round;stroke-linejoin:round;stroke-miterlimit:10;" cx="256" cy="256.515" r="16.596"/>
<circle style="fill:#EFEDEE;" cx="256" cy="256.515" r="189.45"/>
<path style="fill:#D2D2D2;" d="M97.455,256.518c0-99.427,76.596-180.956,173.998-188.821c-5.097-0.411-10.249-0.63-15.453-0.63
	c-104.63,0-189.45,84.82-189.45,189.45s84.82,189.45,189.45,189.45c5.203,0,10.355-0.218,15.453-0.63
	C174.051,437.475,97.455,355.946,97.455,256.518z"/>
<g>
	<path style="fill:#3A484A;" d="M256,67.068c-2.589,0-5.162,0.067-7.726,0.17v34.056c0,4.267,3.458,7.726,7.726,7.726
		c4.268,0,7.726-3.459,7.726-7.726V67.238C261.162,67.135,258.589,67.068,256,67.068z"/>
	<path style="fill:#3A484A;" d="M384.379,117.212l-24.083,24.083c-3.017,3.017-3.017,7.909,0,10.926
		c1.509,1.509,3.486,2.263,5.464,2.263c1.977,0,3.955-0.754,5.464-2.263l24.083-24.082
		C391.813,124.351,388.168,120.705,384.379,117.212z"/>
	<path style="fill:#3A484A;" d="M403.499,256.518c0,4.267,3.458,7.726,7.726,7.726h34.056c0.103-2.564,0.17-5.138,0.17-7.726
		s-0.067-5.162-0.17-7.726h-34.056C406.958,248.792,403.499,252.251,403.499,256.518z"/>
	<path style="fill:#3A484A;" d="M395.306,384.898l-24.083-24.082c-3.018-3.017-7.91-3.017-10.927,0
		c-3.017,3.017-3.017,7.91,0,10.926l24.083,24.083C388.168,392.332,391.813,388.686,395.306,384.898z"/>
	<path style="fill:#3A484A;" d="M256,404.017c-4.268,0-7.726,3.459-7.726,7.726V445.8c2.564,0.103,5.138,0.17,7.726,0.17
		c2.589,0,5.162-0.067,7.726-0.17v-34.056C263.726,407.477,260.267,404.017,256,404.017z"/>
	<path style="fill:#3A484A;" d="M140.775,360.816l-24.082,24.082c3.493,3.789,7.138,7.434,10.927,10.927l24.083-24.083
		c3.017-3.017,3.017-7.91,0-10.926C148.685,357.798,143.794,357.797,140.775,360.816z"/>
	<path style="fill:#3A484A;" d="M66.72,264.245h34.056c4.268,0,7.726-3.459,7.726-7.726s-3.458-7.726-7.726-7.726H66.72
		c-0.103,2.564-0.17,5.138-0.17,7.726S66.617,261.681,66.72,264.245z"/>
	<path style="fill:#3A484A;" d="M116.694,128.139l24.082,24.082c1.509,1.508,3.487,2.263,5.464,2.263
		c1.977,0,3.955-0.754,5.464-2.263c3.017-3.017,3.017-7.91,0-10.926l-24.083-24.083
		C123.832,120.705,120.187,124.351,116.694,128.139z"/>
	<path style="fill:#3A484A;" d="M342.082,248.792h-78.356v-78.357c0-4.267-3.458-7.726-7.726-7.726
		c-4.268,0-7.726,3.459-7.726,7.726v86.083c0,4.267,3.458,7.726,7.726,7.726h86.083c4.268,0,7.726-3.459,7.726-7.726
		C349.809,252.251,346.35,248.792,342.082,248.792z"/>
	<path style="fill:#3A484A;" d="M173.733,307.569c-4.268,0-7.726,3.459-7.726,7.726v14.889c0,4.267,3.458,7.726,7.726,7.726
		c4.268,0,7.726-3.459,7.726-7.726v-14.889C181.459,311.028,178.001,307.569,173.733,307.569z"/>
	<path style="fill:#3A484A;" d="M338.266,307.569c-4.268,0-7.726,3.459-7.726,7.726v14.889c0,4.267,3.458,7.726,7.726,7.726
		s7.726-3.459,7.726-7.726v-14.889C345.992,311.028,342.534,307.569,338.266,307.569z"/>
	<path style="fill:#3A484A;" d="M281.39,323.331c-3.214-2.808-8.094-2.481-10.902,0.732c-3.523,4.03-8.804,6.342-14.487,6.342
		s-10.965-2.312-14.487-6.343c-2.808-3.213-7.69-3.54-10.901-0.731c-3.213,2.808-3.542,7.689-0.732,10.902
		c6.458,7.387,15.979,11.626,26.121,11.626c10.143,0,19.664-4.237,26.121-11.625C284.931,331.021,284.602,326.14,281.39,323.331z"/>
</g>
<g>
	<path style="fill:#FD6F71;" d="M271.808,171.975l-10.349-20.698c-2.249-4.498-8.668-4.498-10.918,0l-10.349,20.698
		c-2.029,4.058,0.922,8.833,5.459,8.833h20.698C270.886,180.807,273.837,176.033,271.808,171.975z"/>
	<path style="fill:#FD6F71;" d="M340.544,272.326l20.698-10.349c4.498-2.249,4.498-8.668,0-10.918l-20.698-10.349
		c-4.058-2.029-8.833,0.922-8.833,5.459v20.698C331.711,271.404,336.486,274.356,340.544,272.326z"/>
	<circle style="fill:#FD6F71;" cx="256" cy="256.515" r="16.596"/>
</g>
<g>
</g>
<g>
</g>
<g>
</g>
<g>
</g>
<g>
</g>
<g>
</g>
<g>
</g>
<g>
</g>
<g>
</g>
<g>
</g>
<g>
</g>
<g>
</g>
<g>
</g>
<g>
</g>
<g>
</g>
</svg>
