<?xml version="1.0" encoding="iso-8859-1"?>
<!-- Generator: Adobe Illustrator 19.0.0, SVG Export Plug-In . SVG Version: 6.00 Build 0)  -->
<svg version="1.1" id="Capa_1" xmlns="http://www.w3.org/2000/svg" xmlns:xlink="http://www.w3.org/1999/xlink" x="0px" y="0px"
	 viewBox="0 0 512 512" style="enable-background:new 0 0 512 512;" xml:space="preserve">
<path style="fill:#4A5058;" d="M477.223,180.946H34.777C15.57,180.946,0,196.516,0,215.722v259.921
	c0,19.207,15.57,34.777,34.777,34.777h442.446c19.207,0,34.777-15.57,34.777-34.777V215.722
	C512,196.516,496.43,180.946,477.223,180.946z"/>
<path style="fill:#80CBDE;" d="M0,392.581v83.063c0,19.207,15.57,34.777,34.777,34.777h442.446c19.207,0,34.777-15.57,34.777-34.777
	v-83.063L0,392.581L0,392.581z"/>
<circle style="opacity:0.1;enable-background:new    ;" cx="270.01" cy="335.769" r="95.48"/>
<circle style="fill:#DFE3E5;" cx="256" cy="321.759" r="95.48"/>
<circle style="fill:#80CBDE;" cx="256" cy="321.759" r="60.731"/>
<path style="opacity:0.1;enable-background:new    ;" d="M256,261.029c-33.541,0-60.731,27.19-60.731,60.731
	c0,18.545,8.322,35.138,21.425,46.278c-9.007-10.594-14.453-24.311-14.453-39.306c0-33.54,27.19-60.731,60.731-60.731
	c14.995,0,28.712,5.446,39.306,14.453C291.138,269.352,274.545,261.029,256,261.029z"/>
<circle style="opacity:0.1;enable-background:new    ;" cx="256" cy="321.759" r="24.09"/>
<rect x="180.2" y="116.269" style="fill:#4A5058;" width="151.6" height="64.67"/>
<rect x="180.2" y="116.269" style="opacity:0.1;enable-background:new    ;" width="151.6" height="64.67"/>
<path style="fill:#4A5058;" d="M349.194,116.273H162.806c-8.427,0-15.258-6.831-15.258-15.258V16.836
	c0-8.427,6.831-15.258,15.258-15.258h186.388c8.427,0,15.258,6.831,15.258,15.258v84.179
	C364.452,109.441,357.621,116.273,349.194,116.273z"/>
<path style="fill:#80CBDE;" d="M173.931,84.684V33.166c0-1.605,1.301-2.906,2.906-2.906h158.327c1.605,0,2.906,1.301,2.906,2.906
	v51.518c0,1.605-1.301,2.906-2.906,2.906H176.837C175.232,87.59,173.931,86.289,173.931,84.684z"/>
<path style="fill:#DFE3E5;" d="M459.82,133.727h-59.718c-5.421,0-9.816,4.395-9.816,9.816v37.403h79.349v-37.403
	C469.636,138.121,465.241,133.727,459.82,133.727z"/>
<rect x="390.29" y="161.759" style="opacity:0.1;enable-background:new    ;" width="79.35" height="19.19"/>
<g>
	<path style="fill:#4A5058;" d="M165.909,462.655c-4.142,0-7.5-3.358-7.5-7.5v-14.954c0-4.142,3.358-7.5,7.5-7.5s7.5,3.358,7.5,7.5
		v14.954C173.409,459.298,170.051,462.655,165.909,462.655z"/>
	<path style="fill:#4A5058;" d="M346.091,462.655c-4.142,0-7.5-3.358-7.5-7.5v-14.954c0-4.142,3.358-7.5,7.5-7.5s7.5,3.358,7.5,7.5
		v14.954C353.591,459.298,350.233,462.655,346.091,462.655z"/>
	<path style="fill:#4A5058;" d="M256,474.139c-11.271,0-21.988-4.882-29.406-13.392c-2.721-3.123-2.396-7.86,0.727-10.582
		c3.123-2.721,7.86-2.396,10.582,0.727c4.568,5.242,11.165,8.248,18.098,8.248s13.53-3.006,18.098-8.248
		c2.721-3.123,7.459-3.447,10.582-0.727c3.122,2.722,3.448,7.459,0.727,10.582C277.988,469.257,267.27,474.139,256,474.139z"/>
</g>
<path style="fill:#E8618C;" d="M55.634,270.499H0v150.369h55.634c13.165,0,23.837-10.672,23.837-23.837V294.336
	C79.471,281.171,68.799,270.499,55.634,270.499z"/>
<path style="opacity:0.1;enable-background:new    ;" d="M477.223,180.946h-60.731c19.207,0,34.777,15.57,34.777,34.777v259.921
	c0,19.207-15.57,34.777-34.777,34.777h60.731c19.207,0,34.777-15.57,34.777-34.777V215.722
	C512,196.516,496.43,180.946,477.223,180.946z"/>
<rect x="217.87" y="30.259" style="opacity:0.1;enable-background:new    ;" width="15" height="57.33"/>
<rect x="279.13" y="30.259" style="opacity:0.1;enable-background:new    ;" width="15" height="57.33"/>
<g>
</g>
<g>
</g>
<g>
</g>
<g>
</g>
<g>
</g>
<g>
</g>
<g>
</g>
<g>
</g>
<g>
</g>
<g>
</g>
<g>
</g>
<g>
</g>
<g>
</g>
<g>
</g>
<g>
</g>
</svg>
